<?xml version="1.0" encoding="utf-8"?>
<!-- Generator: Adobe Illustrator 22.0.1, SVG Export Plug-In . SVG Version: 6.00 Build 0)  -->
<svg version="1.1" xmlns="http://www.w3.org/2000/svg" xmlns:xlink="http://www.w3.org/1999/xlink" x="0px" y="0px"
	 viewBox="0 0 416 471.3" style="enable-background:new 0 0 416 471.3;" xml:space="preserve">
<style type="text/css">
	.st0{fill:#4D4D4D;}
	.st1{clip-path:url(#SVGID_2_);}
	.st2{fill:#D65638;}
	.st3{clip-path:url(#SVGID_4_);}
	.st4{fill:#E06A4F;}
	.st5{clip-path:url(#SVGID_6_);}
	.st6{fill:#EC795A;}
	.st7{opacity:0.57;clip-path:url(#SVGID_6_);fill:url(#SVGID_7_);}
	.st8{fill:none;}
	.st9{opacity:0.57;fill:url(#SVGID_8_);}
	.st10{opacity:0.66;fill:url(#SVGID_9_);}
	.st11{fill:url(#SVGID_10_);}
	.st12{fill:url(#SVGID_11_);}
	.st13{opacity:0.54;fill:url(#SVGID_12_);}
	.st14{opacity:0.54;fill:url(#SVGID_13_);}
	.st15{fill:url(#SVGID_14_);}
	.st16{clip-path:url(#SVGID_16_);}
	.st17{fill:#5E85E5;}
	.st18{fill:#FDFCEF;}
	.st19{filter:url(#Adobe_OpacityMaskFilter);}
	.st20{fill:url(#SVGID_18_);}
	.st21{opacity:0.38;mask:url(#SVGID_17_);fill:#CCCCCC;}
	.st22{fill:#F2FEFC;}
	.st23{fill:#BC3624;}
	.st24{filter:url(#Adobe_OpacityMaskFilter_1_);}
	.st25{fill:url(#SVGID_20_);}
	.st26{opacity:0.38;mask:url(#SVGID_19_);fill:#CCCCCC;}
	.st27{fill:#6B8CF2;}
	.st28{clip-path:url(#SVGID_22_);}
	.st29{fill:#AAAAAA;}
	.st30{fill:#8E8D87;}
	.st31{opacity:0.85;}
</style>
<g id="Warstwa_1">
	<g id="Warstwa_3">
	</g>
	<g id="Warstwa_4">
	</g>
</g>
<g id="Warstwa_2">
</g>
<g id="Warstwa_5">
	<g>
		<g>
			<polygon class="st0" points="404.1,348.2 404.1,122.5 208.6,9.6 13.1,122.5 13.1,348.2 208.6,461.1 			"/>
			<path class="st0" d="M208.6,20l186.5,107.7V343L208.6,450.7L22.1,343V127.6L208.6,20 M208.6,9.6L13.1,122.5v225.7l195.5,112.9
				l195.5-112.9V122.5L208.6,9.6L208.6,9.6z"/>
		</g>
		<g>
			<g>
				<defs>
					<circle id="SVGID_1_" cx="56.7" cy="306.4" r="64.9"/>
				</defs>
				<clipPath id="SVGID_2_">
					<use xlink:href="#SVGID_1_"  style="overflow:visible;"/>
				</clipPath>
				<g class="st1">
					<polygon class="st2" points="19.3,246.4 19.3,246.4 19.3,249.6 19.3,249.6 					"/>
				</g>
				<g class="st1">
					<path class="st2" d="M17.9,247.7l-0.9,0.9c-0.5,0.5-1.1-0.3-0.6-0.8l1.5-1.5v-1.2c-5.2-2.7-10.9-4.3-16.4-5.6
						c-2.9-0.7-6-1.3-8.8-0.2c-3,1.3-5,4.4-6.7,7.5c-7.4,12.7-14.4,25.6-21,38.9c4.3-1.9,10,0.5,14.4,3.8L17.9,251V247.7z"/>
				</g>
				<g class="st1">
					<path class="st2" d="M-36.6,288.8c0.5-1.1,1.1-2.1,1.6-3.2c-0.9,0.4-1.7,1-2.5,1.7L-36.6,288.8z"/>
				</g>
				<g class="st1">
					<path class="st2" d="M40.7,357.8c3.5,2.9,7,5.8,10.8,8.3c4.8,3.1,9.7,6,14.5,9.1c8.8,5.7,17.4,11.7,25.9,17.9
						c10.7,0.3,21.3-4.2,28.9-12.5c-5-19.6-15.3-37.2-27.6-52.1C80.9,313.4,66.5,301,52,289.2c-6.6-5.4-13.6-11.1-17.1-19.5
						c-1.6-3.8-2.4-8-4.1-11.8c-2-4.3-4.9-7.5-8.4-10.1l-2.2,2.2V343c0.5,0.7,1,1.4,1.5,2C28.8,347.7,35,353.2,40.7,357.8z"/>
				</g>
			</g>
			<g>
				<defs>
					<circle id="SVGID_3_" cx="56.7" cy="306.4" r="64.9"/>
				</defs>
				<clipPath id="SVGID_4_">
					<use xlink:href="#SVGID_3_"  style="overflow:visible;"/>
				</clipPath>
				<g class="st3">
					<path class="st4" d="M58.7,336.1c1.9,11-2,22.2-1.8,33.4c3,1.9,6.1,3.7,9.1,5.7c7.1,4.6,14,9.3,20.9,14.2
						c20.4-5,36.4-21.1,48.3-38.5c4.6-6.7,8.8-15.2,5.5-22.6c-2.8-6.2-9.9-9.1-16-12.1c-23.9-11.7-41.7-34.9-46.9-61
						c-2.3-11.6-2.2-23.6-5.7-34.9c-1.7-5.6-4.6-11.3-9.9-14c-5.2-2.7-13-0.5-14.4,5.2l0.4,2.4c-1,16.2-4.3,32.2-5.7,48.3
						s-0.9,32.9,5.4,47.9C51.5,318.8,57.1,326.8,58.7,336.1z"/>
				</g>
				<g class="st3">
					<path class="st4" d="M63.5,374.7c-2.2-1.4-4.4-2.7-6.5-4c0.2,4.9,1.4,10,4.7,13.8c5.6,6.5,15.5,7.1,23.8,5.2c0,0,0.1,0,0.1,0
						C78.3,384.5,71,379.5,63.5,374.7z"/>
				</g>
			</g>
			<g>
				<defs>
					<circle id="SVGID_5_" cx="56.7" cy="306.4" r="64.9"/>
				</defs>
				<clipPath id="SVGID_6_">
					<use xlink:href="#SVGID_5_"  style="overflow:visible;"/>
				</clipPath>
				<g class="st5">
					<polygon class="st6" points="19.3,246.4 19.3,249.6 19.3,249.6 19.3,246.4 					"/>
				</g>
				<g class="st5">
					<path class="st6" d="M180.4,283.1c-3.7-17.5-17.1-31.3-31.5-41.9c-36.9-27.2-84.6-39.3-130-33.1l8,0.3
						c-10.7,3.4-14.8,16.5-14.9,27.8c0,6.1,0.7,12.4,2.4,18.2l2.8-2.8v-3.3l-0.2,0.2c-0.5,0.5-1.1-0.3-0.6-0.8l0.8-0.8v-14.4
						c0-0.6,1-0.5,1,0.1v9.4c0,0,0,0,0,0v-3.9c0-0.6,1-0.5,1,0.1v6.7l0,0v-0.8c0-0.6,0.8-0.5,1-0.1l0.6-0.6c0.5-0.5,1.1,0.3,0.6,0.8
						l-1.2,1.2v3.3l1.9-1.9c0.5-0.5,1.1,0.3,0.6,0.8l-2.5,2.5v16.3c0.2,0.2,0.3,0.5,0.5,0.7c17.9,24,58.7,19.7,76.8,43.5
						C106.2,322,108.9,339,122,345c8.3,3.8,18.2,1.5,26.4-2.6C170,331.7,185.3,306.8,180.4,283.1z M102.6,255.6
						c0,0.3-0.2,0.5-0.5,0.6c-9.1,2.3-17-2.7-20.1-11.4c-1.6-4.1,1.9-8.6,5.7-10c4.2-1.5,9.3-0.5,13.3,1.1c4.5,1.8,8.7,5.4,9.4,10.5
						C111,250.9,107.4,255.9,102.6,255.6z"/>
				</g>
				
					<linearGradient id="SVGID_7_" gradientUnits="userSpaceOnUse" x1="71.5611" y1="290.3768" x2="90.6731" y2="290.3768" gradientTransform="matrix(0.9997 -2.576296e-02 2.576296e-02 0.9997 2.2252 -34.2452)">
					<stop  offset="0" style="stop-color:#D14230"/>
					<stop  offset="0.9952" style="stop-color:#EC795A"/>
				</linearGradient>
				<path class="st7" d="M83,247c-1.1,1.6-1.9,3-1.8,5.1c0.1,5.1,4.5,9.1,9.8,8.9c3.1-0.1,5.9-2,7.6-4.3C92.8,257,86.5,254.3,83,247
					z"/>
			</g>
			<g>
				<path class="st8" d="M56.7,241.5c-16.8,0-32.1,6.4-43.6,16.8v96.2c11.5,10.5,26.8,16.8,43.6,16.8c35.9,0,64.9-29.1,64.9-64.9
					C121.7,270.6,92.6,241.5,56.7,241.5z"/>
			</g>
			<linearGradient id="SVGID_8_" gradientUnits="userSpaceOnUse" x1="35.9071" y1="262.3133" x2="57.9586" y2="262.3133">
				<stop  offset="4.807692e-03" style="stop-color:#EC795A"/>
				<stop  offset="1" style="stop-color:#D14230"/>
			</linearGradient>
			<circle class="st9" cx="46.9" cy="262.3" r="11"/>
			
				<linearGradient id="SVGID_9_" gradientUnits="userSpaceOnUse" x1="-1165.6453" y1="1307.0763" x2="-1160.9122" y2="1301.1208" gradientTransform="matrix(0.3669 -0.9303 0.9303 0.3669 -724.2681 -1283.2231)">
				<stop  offset="4.807692e-03" style="stop-color:#EC795A"/>
				<stop  offset="1" style="stop-color:#D14230"/>
			</linearGradient>
			<circle class="st10" cx="62.1" cy="277.4" r="3.8"/>
			
				<linearGradient id="SVGID_10_" gradientUnits="userSpaceOnUse" x1="-1207.4907" y1="1362.9878" x2="-1199.6417" y2="1353.1115" gradientTransform="matrix(0.3669 -0.9303 0.9303 0.3669 -724.2681 -1283.2231)">
				<stop  offset="4.807692e-03" style="stop-color:#EC795A"/>
				<stop  offset="1" style="stop-color:#D14230"/>
			</linearGradient>
			<circle class="st11" cx="97.5" cy="334.7" r="6.3"/>
			<linearGradient id="SVGID_11_" gradientUnits="userSpaceOnUse" x1="61.6339" y1="318.6673" x2="83.6854" y2="318.6673">
				<stop  offset="4.807692e-03" style="stop-color:#EC795A"/>
				<stop  offset="1" style="stop-color:#D14230"/>
			</linearGradient>
			<circle class="st12" cx="72.7" cy="318.7" r="11"/>
			
				<linearGradient id="SVGID_12_" gradientUnits="userSpaceOnUse" x1="-1222.2914" y1="1307.0304" x2="-1217.5583" y2="1301.075" gradientTransform="matrix(0.3669 -0.9303 0.9303 0.3669 -724.2681 -1283.2231)">
				<stop  offset="4.807692e-03" style="stop-color:#EC795A"/>
				<stop  offset="1" style="stop-color:#D14230"/>
			</linearGradient>
			<circle class="st13" cx="41.2" cy="330.1" r="3.8"/>
			
				<linearGradient id="SVGID_13_" gradientUnits="userSpaceOnUse" x1="-1211.9945" y1="1297.5299" x2="-1203.137" y2="1286.3845" gradientTransform="matrix(0.3669 -0.9303 0.9303 0.3669 -724.2681 -1283.2231)">
				<stop  offset="4.807692e-03" style="stop-color:#EC795A"/>
				<stop  offset="1" style="stop-color:#D14230"/>
			</linearGradient>
			<circle class="st14" cx="34.5" cy="314.2" r="7.1"/>
			
				<linearGradient id="SVGID_14_" gradientUnits="userSpaceOnUse" x1="389.9376" y1="-579.0671" x2="418.1145" y2="-579.0671" gradientTransform="matrix(0.7164 0.4136 -0.3928 0.6804 -419.454 511.8163)">
				<stop  offset="4.807692e-03" style="stop-color:#EC795A"/>
				<stop  offset="1" style="stop-color:#D14230"/>
			</linearGradient>
			<path class="st15" d="M107.6,290.7c-3.2,5.5-10.3,7.4-15.9,4.2c-5.6-3.2-7.5-10.3-4.3-15.8c3.2-5.5,10.3-7.4,15.9-4.2
				S110.8,285.2,107.6,290.7z"/>
		</g>
		<g>
			<defs>
				<polygon id="SVGID_15_" points="404.1,347.7 404.1,122 208.6,9.1 13.1,122 13.1,347.7 208.6,460.6 				"/>
			</defs>
			<clipPath id="SVGID_16_">
				<use xlink:href="#SVGID_15_"  style="overflow:visible;"/>
			</clipPath>
			<g class="st16">
				<g>
					<ellipse class="st17" cx="210.1" cy="438.8" rx="253.5" ry="143.5"/>
					<path class="st18" d="M210.1,298.3c138.1,0,250.5,63,250.5,140.5S348.2,579.3,210.1,579.3s-250.5-63-250.5-140.5
						S72,298.3,210.1,298.3 M210.1,295.3c-140,0-253.5,64.2-253.5,143.5S70.1,582.3,210.1,582.3s253.5-64.2,253.5-143.5
						S350.1,295.3,210.1,295.3L210.1,295.3z"/>
				</g>
			</g>
		</g>
		<g>
			<defs>
				<filter id="Adobe_OpacityMaskFilter" filterUnits="userSpaceOnUse" x="254.6" y="275.4" width="118.3" height="29.1">
					<feColorMatrix  type="matrix" values="1 0 0 0 0  0 1 0 0 0  0 0 1 0 0  0 0 0 1 0"/>
				</filter>
			</defs>
			<mask maskUnits="userSpaceOnUse" x="254.6" y="275.4" width="118.3" height="29.1" id="SVGID_17_">
				<g class="st19">
					
						<linearGradient id="SVGID_18_" gradientUnits="userSpaceOnUse" x1="90.2387" y1="949.5694" x2="-8.3716" y2="879.9239" gradientTransform="matrix(0.9013 -0.4331 0.4331 0.9013 -111.3989 -520.9232)">
						<stop  offset="0" style="stop-color:#FFFFFF"/>
						<stop  offset="0.1231" style="stop-color:#C4C4C4"/>
						<stop  offset="0.2463" style="stop-color:#909090"/>
						<stop  offset="0.3718" style="stop-color:#646464"/>
						<stop  offset="0.4972" style="stop-color:#404040"/>
						<stop  offset="0.6226" style="stop-color:#242424"/>
						<stop  offset="0.7481" style="stop-color:#101010"/>
						<stop  offset="0.8737" style="stop-color:#040404"/>
						<stop  offset="1" style="stop-color:#000000"/>
					</linearGradient>
					<polygon class="st20" points="359.5,343.3 260.3,308.5 288.2,229.2 387.3,264 					"/>
				</g>
			</mask>
			<path class="st21" d="M365.6,304.5c-49.5-50.7-99.8-13.8-111-4.1c0,0,54.5-54.9,118.3-1.8L365.6,304.5z"/>
			<g>
				<path class="st22" d="M375.5,307c6.1-7.4-21-20-22.2-18.7C352.2,289.7,370,313.6,375.5,307z"/>
				<path class="st6" d="M374.5,306.2c4.1-4.9-14.5-13.8-15.3-12.9C358.5,294.2,370.8,310.6,374.5,306.2z"/>
				<path class="st23" d="M373.8,305.3c0.6-0.8,0.5-1.9-0.2-2.5c-0.8-0.6-1.9-0.5-2.5,0.2c-0.6,0.8-0.5,1.9,0.2,2.5
					C372.1,306.2,373.2,306.1,373.8,305.3z"/>
			</g>
		</g>
		<g>
			<defs>
				<filter id="Adobe_OpacityMaskFilter_1_" filterUnits="userSpaceOnUse" x="182.1" y="63.9" width="116.6" height="68.7">
					<feColorMatrix  type="matrix" values="1 0 0 0 0  0 1 0 0 0  0 0 1 0 0  0 0 0 1 0"/>
				</filter>
			</defs>
			<mask maskUnits="userSpaceOnUse" x="182.1" y="63.9" width="116.6" height="68.7" id="SVGID_19_">
				<g class="st24">
					
						<linearGradient id="SVGID_20_" gradientUnits="userSpaceOnUse" x1="-1154.1483" y1="447.1324" x2="-1265.9141" y2="368.1956" gradientTransform="matrix(-0.5826 -0.8128 -0.8128 0.5826 -133.7128 -1139.3014)">
						<stop  offset="0" style="stop-color:#FFFFFF"/>
						<stop  offset="0.1231" style="stop-color:#C4C4C4"/>
						<stop  offset="0.2463" style="stop-color:#909090"/>
						<stop  offset="0.3718" style="stop-color:#646464"/>
						<stop  offset="0.4972" style="stop-color:#404040"/>
						<stop  offset="0.6226" style="stop-color:#242424"/>
						<stop  offset="0.7481" style="stop-color:#101010"/>
						<stop  offset="0.8737" style="stop-color:#040404"/>
						<stop  offset="1" style="stop-color:#000000"/>
					</linearGradient>
					<polygon class="st25" points="171.1,118.2 288.6,137.5 304.1,43.6 186.6,24.2 					"/>
				</g>
			</mask>
			<path class="st26" d="M183.9,70.8c76.8-23.4,108.9,46,114.8,61.8c0,0-24.3-84.2-116.6-66.2L183.9,70.8z"/>
			<g>
				<path class="st27" d="M165.1,76.2c1.5,0.1,2,0.1,5.4-0.7c0.1,0.1,0.3,0.1,0.4,0.1c0.6-0.2,1.2-0.4,1.8-0.6
					c0.1,0,0.2-0.1,0.2-0.3c0.3-0.1,0.5-0.2,0.8-0.3c0,0.1,0.1,0.1,0.2,0.1c0,0,0.1,0,0.1,0c2.4-0.8,4.8-1.7,7.1-2.5
					c0.1,0,0.3,0,0.2-0.2c0,0,0,0,0,0c0,0,0,0,0,0c0,0,0,0,0,0c0.3-0.1,0.5-0.2,0.8-0.3c0,0.1,0.1,0.1,0.2,0.1
					c0.7-0.2,1.3-0.5,2-0.7c0.1-0.1,0.2-0.1,0.1-0.2c0.3-0.1,0.6-0.2,0.9-0.3c0.1,0,0.2-0.1,0.2-0.3c0-0.1,0.1-0.2,0.1-0.3
					c0.1-0.4,0.2-0.7,0.3-1.1c0.4,0.4,0.8,0.2,1.3,0c0.2-0.1,0.3-0.1,0.5-0.2c0.1-0.2-0.1-0.3-0.1-0.4c-0.1-0.2-0.2-0.5-0.3-0.7
					c-0.1-0.3-0.2-0.6-0.3-0.9c0-0.2-0.1-0.2-0.3-0.1c-0.3,0.1-0.6,0.2-0.9,0.3c-0.3,0.1-0.2,0.3-0.5,0.5c-0.1-0.3-0.2-0.6-0.3-0.9
					c-0.1-0.2-0.1-0.2-0.3-0.2c-0.2,0-0.4,0.1-0.5,0.1c-0.2-0.6-0.3-1.2-0.5-1.8c0-0.1-0.1-0.2-0.1-0.3c-0.3,0.1-0.6,0.2-0.8,0.3
					c0,0,0,0,0,0c0,0,0,0,0,0c-0.3,0.1-0.5,0.2-0.8,0.3c-0.2,0.7-0.4,1.4-0.6,2.1c0,0.1-0.1,0.2-0.1,0.3c-0.8,0.3-1.7,0.5-2.5,0.8
					c-1.4,0.4-2.8,0.9-4.2,1.4c-0.2,0.1-0.2,0.3-0.3,0.5c-0.2,0.1-8.5,3.5-10.1,6.5C164.3,76.2,164.6,76.3,165.1,76.2z"/>
			</g>
		</g>
		<g>
			<path class="st18" d="M150.6,324.5v40.7h-7.1v-40.7H150.6z"/>
			<path class="st18" d="M181.1,324.5c2.3,0,4.3,0.3,5.9,1c1.6,0.7,3,1.5,4.1,2.7c1.1,1.1,1.8,2.4,2.3,3.9c0.5,1.5,0.8,3,0.8,4.6
				c0,1.5-0.2,3.1-0.7,4.6c-0.5,1.5-1.2,2.9-2.3,4.1c-1,1.2-2.4,2.2-4.1,3c-1.7,0.8-3.7,1.1-6.1,1.1h-12.7c-0.7,0-1,0.3-1,1v14.7
				h-7.1v-16.1c0-2.3,0.5-3.9,1.5-4.9c1-1,2.6-1.5,4.9-1.5h14.6c1,0,1.9-0.2,2.6-0.5c0.7-0.3,1.3-0.7,1.7-1.3c0.4-0.5,0.8-1.1,1-1.8
				c0.2-0.7,0.3-1.4,0.3-2.1c0-1.5-0.5-2.8-1.4-3.8c-0.9-1.1-2.3-1.6-4.2-1.6h-21.2v-7.1H181.1z"/>
			<path class="st18" d="M232.1,324.5v7.1h-16.4c-1.6,0-3,0.2-4,0.5c-1.1,0.4-1.9,0.9-2.6,1.5c-0.6,0.6-1.1,1.3-1.4,2.2
				c-0.3,0.8-0.4,1.7-0.4,2.7v3.9h24.5v6.7h-24.5v16.1h-7.1v-26.6c0-2,0.3-3.9,0.8-5.6c0.5-1.7,1.4-3.2,2.6-4.4
				c1.2-1.2,2.8-2.2,4.7-2.9c1.9-0.7,4.2-1.1,6.9-1.1H232.1z"/>
			<path class="st18" d="M271.9,324.5v7.1h-20.9c-1.8,0-3.2,0.5-4,1.4c-0.8,0.9-1.3,2.1-1.3,3.5c0,0.6,0.1,1.2,0.3,1.8
				c0.2,0.6,0.5,1.1,1,1.6c0.5,0.5,1.1,0.8,1.8,1.1c0.8,0.3,1.7,0.4,3,0.4h9.5c2.8,0,5,0.4,6.8,1.1c1.8,0.7,3.2,1.6,4.2,2.7
				c1,1.1,1.7,2.4,2.1,3.9s0.6,2.9,0.6,4.3c0,1.7-0.2,3.3-0.7,4.8s-1.2,2.7-2.3,3.8c-1,1.1-2.4,1.9-4,2.5s-3.6,0.9-5.9,0.9h-22.7
				V358h22.9c1.9,0,3.3-0.5,4.2-1.4c0.9-0.9,1.4-2.2,1.4-3.6c0-0.6-0.1-1.3-0.3-1.9c-0.2-0.6-0.5-1.2-1-1.6c-0.5-0.5-1.1-0.8-2-1.1
				c-0.8-0.3-1.9-0.4-3.1-0.4h-9.5c-2.7,0-5-0.3-6.7-1c-1.7-0.7-3.1-1.6-4.1-2.7c-1-1.1-1.7-2.4-2-3.8c-0.4-1.4-0.6-2.8-0.6-4.2
				c0-1.7,0.2-3.2,0.7-4.7c0.5-1.4,1.2-2.7,2.2-3.7c1-1,2.3-1.9,3.9-2.4c1.6-0.6,3.5-0.9,5.8-0.9H271.9z"/>
			<path class="st18" d="M149.5,371.9v3.5h-10.2c-0.9,0-1.6,0.2-2,0.7s-0.6,1-0.6,1.7c0,0.3,0,0.6,0.1,0.9c0.1,0.3,0.2,0.5,0.5,0.8
				c0.2,0.2,0.5,0.4,0.9,0.5c0.4,0.1,0.9,0.2,1.4,0.2h4.7c1.4,0,2.5,0.2,3.3,0.5c0.9,0.3,1.5,0.8,2.1,1.3c0.5,0.6,0.8,1.2,1,1.9
				c0.2,0.7,0.3,1.4,0.3,2.1c0,0.8-0.1,1.6-0.4,2.3c-0.2,0.7-0.6,1.3-1.1,1.8c-0.5,0.5-1.2,0.9-2,1.2c-0.8,0.3-1.8,0.4-2.9,0.4
				h-11.1v-3.5h11.2c0.9,0,1.6-0.2,2.1-0.7c0.4-0.5,0.7-1.1,0.7-1.8c0-0.3,0-0.6-0.1-0.9c-0.1-0.3-0.3-0.6-0.5-0.8
				c-0.2-0.2-0.6-0.4-1-0.5s-0.9-0.2-1.5-0.2h-4.6c-1.3,0-2.4-0.2-3.3-0.5c-0.8-0.3-1.5-0.8-2-1.3c-0.5-0.6-0.8-1.2-1-1.9
				c-0.2-0.7-0.3-1.4-0.3-2.1c0-0.8,0.1-1.6,0.3-2.3c0.2-0.7,0.6-1.3,1.1-1.8s1.1-0.9,1.9-1.2c0.8-0.3,1.7-0.4,2.8-0.4H149.5z"/>
			<path class="st18" d="M158.4,371.9v8.1h10.2v-8.1h3.5v19.9h-3.5v-8.3h-10.2v8.3h-3.5v-19.9H158.4z"/>
			<path class="st18" d="M180.4,371.9v19.9h-3.5v-19.9H180.4z"/>
			<path class="st18" d="M195.3,371.9c1.1,0,2.1,0.2,2.9,0.5c0.8,0.3,1.5,0.8,2,1.3c0.5,0.5,0.9,1.2,1.2,1.9s0.4,1.5,0.4,2.3
				c0,0.7-0.1,1.5-0.3,2.2c-0.2,0.7-0.6,1.4-1.1,2c-0.5,0.6-1.2,1.1-2,1.4s-1.8,0.6-3,0.6h-6.2c-0.3,0-0.5,0.2-0.5,0.5v7.2h-3.5
				v-7.9c0-1.1,0.2-1.9,0.7-2.4c0.5-0.5,1.3-0.7,2.4-0.7h7.2c0.5,0,0.9-0.1,1.3-0.2c0.4-0.2,0.6-0.4,0.9-0.6
				c0.2-0.3,0.4-0.5,0.5-0.9c0.1-0.3,0.2-0.7,0.2-1c0-0.7-0.2-1.4-0.7-1.9c-0.4-0.5-1.1-0.8-2.1-0.8h-10.4v-3.5H195.3z"/>
			<path class="st18" d="M206,371.9l5.6,8.5l5.6-8.5h4.1l-8,11.3v8.6h-3.5v-8.6l-8-11.3H206z"/>
			<path class="st18" d="M223.2,391.8h-3.8l7-17.7c0.4-0.9,0.9-1.6,1.6-2c0.7-0.4,1.5-0.6,2.6-0.6c1,0,1.9,0.2,2.6,0.6
				c0.7,0.4,1.2,1,1.5,2l6.7,17.7h-3.9l-6-16c-0.2-0.5-0.5-0.7-1-0.7c-0.5,0-0.8,0.2-1,0.7L223.2,391.8z"/>
			<path class="st18" d="M255.1,371.9c1.1,0,2.1,0.2,2.9,0.5c0.8,0.3,1.5,0.8,2,1.3c0.5,0.5,0.9,1.2,1.2,1.9
				c0.2,0.7,0.4,1.5,0.4,2.3c0,0.6-0.1,1.3-0.2,1.9c-0.2,0.6-0.4,1.2-0.7,1.7c-0.3,0.5-0.8,1-1.3,1.4s-1.2,0.7-1.9,0.9l4.6,8H258
				l-4.5-7.7h-5.2c-0.3,0-0.5,0.2-0.5,0.5v7.2h-3.5v-7.9c0-1.1,0.2-1.9,0.7-2.4c0.5-0.5,1.3-0.7,2.4-0.7h7.8c0.5,0,0.9-0.1,1.3-0.2
				c0.4-0.2,0.6-0.4,0.9-0.6c0.2-0.3,0.4-0.5,0.5-0.9c0.1-0.3,0.2-0.7,0.2-1c0-0.7-0.2-1.3-0.7-1.8s-1.1-0.8-2.1-0.8h-10.9v-3.5
				H255.1z"/>
			<path class="st18" d="M274.1,371.9c2.9,0,5.2,0.8,6.7,2.4c1.5,1.6,2.3,4.1,2.3,7.5c0,3.4-0.8,5.9-2.3,7.5
				c-1.5,1.6-3.8,2.4-6.7,2.4h-7c-1.1,0-1.7-0.5-1.7-1.6v-16.7c0-1.1,0.6-1.6,1.7-1.6H274.1z M268.9,388c0,0.2,0.1,0.4,0.4,0.4h4.8
				c1.9,0,3.3-0.5,4.2-1.5c0.9-1,1.3-2.7,1.3-5s-0.4-3.9-1.3-4.9c-0.9-1-2.3-1.5-4.2-1.5h-4.8c-0.3,0-0.4,0.1-0.4,0.4V388z"/>
		</g>
		<g>
			<defs>
				<polygon id="SVGID_21_" points="403.7,347 403.7,121.3 209,8.4 14.3,121.3 14.3,347 209,459.9 				"/>
			</defs>
			<clipPath id="SVGID_22_">
				<use xlink:href="#SVGID_21_"  style="overflow:visible;"/>
			</clipPath>
			<g class="st28">
				<g>
					<g>
						<path class="st29" d="M337,150.8c-4.6-1.3-10.2-2.1-16.2-2.1s-11.6,0.8-16.2,2.1h-13.2v10.5c0,7,13.1,12.6,29.4,12.6
							s29.4-5.7,29.4-12.6v-10.5H337z"/>
						<ellipse class="st18" cx="320.8" cy="150.8" rx="29.4" ry="12.6"/>
					</g>
					<g>
						<path class="st29" d="M143,123.9c-4-1.1-8.9-1.8-14.1-1.8c-5.2,0-10,0.7-14.1,1.8h-11.4v9.1c0,6,11.4,11,25.5,11
							s25.5-4.9,25.5-11v-9.1H143z"/>
						<ellipse class="st18" cx="129" cy="123.9" rx="25.5" ry="11"/>
					</g>
					<path class="st30" d="M90.8,190.4c2-15.2,42.7-27.4,92.7-27.4s90.7,12.2,92.7,27.4h2.1v-22.8c0-15.1-42.6-27.4-95.2-27.4
						S88,152.5,88,167.6v22.8H90.8z"/>
					<g>
						<path class="st29" d="M201,162.7c-5.6-1.6-12.2-2.5-19.4-2.5c-7.2,0-13.8,0.9-19.4,2.5h-15.8v12.6c0,8.4,15.7,15.1,35.2,15.1
							s35.2-6.8,35.2-15.1v-12.6H201z"/>
						<ellipse class="st18" cx="181.6" cy="162.7" rx="35.2" ry="15.1"/>
					</g>
					<polygon class="st29" points="215.6,175.4 215.1,167.3 295.6,157.4 296.1,165.5 					"/>
					<polygon class="st29" points="-1.5,199 -2,191.7 155.1,172.4 155.6,179.7 					"/>
					<path class="st29" d="M275.6,168.1c-2,15.2-42.7,27.4-92.7,27.4s-90.7-12.2-92.7-27.4H88v22.8c0,15.1,42.6,27.4,95.2,27.4
						s95.2-12.2,95.2-27.4v-22.8H275.6z"/>
					<path class="st18" d="M183.2,198.5c-25,0-48.5-3-66.2-8.4C97.7,184.1,88,176.3,88,166.7s9.8-17.4,29.1-23.4
						c17.7-5.4,41.2-8.4,66.2-8.4c25,0,48.5,3,66.2,8.4c19.3,5.9,29.1,13.8,29.1,23.4s-9.8,17.4-29.1,23.4
						C231.6,195.5,208.1,198.5,183.2,198.5z M183.2,141.4c-56,0-90.4,14.7-90.4,25.3c0,10.6,34.4,25.3,90.4,25.3
						c56,0,90.4-14.7,90.4-25.3C273.6,156.1,239.2,141.4,183.2,141.4z"/>
					<path class="st18" d="M280.7,243.2c-0.4,0-0.8-0.1-1.2-0.4L118.3,120.1c-1.2-0.9-1.6-2.9-0.9-4.4c0.7-1.6,2.1-2.1,3.3-1.2
						l161.2,122.7c1.2,0.9,1.6,2.9,0.9,4.4C282.3,242.6,281.5,243.2,280.7,243.2z"/>
					<g>
						<path class="st29" d="M287.1,227.3c-5.6-1.6-12.2-2.5-19.4-2.5s-13.8,0.9-19.4,2.5h-15.8V240c0,8.4,15.7,15.1,35.2,15.1
							s35.2-6.8,35.2-15.1v-12.6H287.1z"/>
						<ellipse class="st18" cx="267.7" cy="227.3" rx="35.2" ry="15.1"/>
					</g>
					<g>
						<path class="st29" d="M35.8,186.3c-4.6-1.3-10.2-2.1-16.2-2.1S8,184.9,3.4,186.3H-9.8v10.5c0,7,13.1,12.6,29.4,12.6
							s29.4-5.7,29.4-12.6v-10.5H35.8z"/>
						<ellipse class="st18" cx="19.6" cy="186.3" rx="29.4" ry="12.6"/>
					</g>
					<path class="st18" d="M213.9,167.4c-1.2,0-2.3-1.3-2.4-3c-0.1-1.8,0.9-3.4,2.2-3.5l129.1-15.9c1.3-0.2,2.5,1.2,2.6,2.9
						c0.1,1.8-0.9,3.4-2.2,3.5l-129.1,15.9C214,167.4,214,167.4,213.9,167.4z"/>
					<polygon class="st18" points="14.5,192.3 14,185 171,165.7 171.5,173 					"/>
				</g>
				<g>
					<path class="st18" d="M188.1,236.4l28.6-3.5c-0.6-0.5-1.2-1-1.8-1.6l-26.8,3.3V236.4z"/>
					<path class="st18" d="M224.4,239l-31.8,3.9v1.8l33.4-4.1v-0.1C225.4,240,225,239.4,224.4,239z"/>
					<path class="st18" d="M227.4,240.4l-11-9.2l-2.4,0.3l11.1,9.3C225.5,240.7,226.7,240.5,227.4,240.4z"/>
					<path class="st18" d="M236.5,232.3l-17.4,2.1l0.9,1.8l18-2.3C237.6,233.4,237.1,232.8,236.5,232.3z"/>
				</g>
				<g>
					<path class="st18" d="M343.5,219.3l-28.6,3.5c0.6,0.5,1.2,1,1.8,1.6l26.8-3.3V219.3z"/>
					<path class="st18" d="M307.3,216.7l31.8-3.9V211l-33.4,4.1v0.1C306.2,215.8,306.7,216.3,307.3,216.7z"/>
					<path class="st18" d="M304.3,215.3l11,9.2l2.4-0.3l-11.1-9.3C306.1,215,304.9,215.2,304.3,215.3z"/>
					<path class="st18" d="M295.1,223.4l17.4-2.1l-0.9-1.8l-18,2.3C294,222.4,294.5,222.9,295.1,223.4z"/>
				</g>
				<g>
					<path class="st18" d="M278.4,238.6l11.5,8.8l2.4-0.4l-11.6-8.8C280.3,238.2,279.1,238.5,278.4,238.6z"/>
					<path class="st18" d="M284.3,247c-0.8,0.2-1.9,0.4-2.5,0.5l17.5,13.3l2.5-0.4L284.3,247z"/>
					<polygon class="st18" points="298.2,244.7 281.7,247.4 283.8,249 300.2,246.2 					"/>
					<path class="st18" d="M298.2,244.7c-0.8,0.2-1.9,0.4-2.5,0.5l17.5,13.3l2.5-0.4L298.2,244.7z"/>
				</g>
				<g>
					<g>
						<path class="st18" d="M25.7,193.1l10.6,8.1l2.2-0.4l-10.7-8.1C27.4,192.8,26.3,193,25.7,193.1z"/>
						<path class="st18" d="M31.2,200.9c-0.8,0.1-1.7,0.3-2.3,0.5l16.2,12.3l2.3-0.4L31.2,200.9z"/>
						<polygon class="st18" points="44,198.7 28.8,201.3 30.7,202.7 45.8,200.1 						"/>
						<path class="st18" d="M44,198.7c-0.8,0.1-1.7,0.3-2.3,0.5l16.2,12.3l2.3-0.4L44,198.7z"/>
					</g>
				</g>
				<g>
					<path class="st18" d="M324.3,157.6l10.6,8.1l2.2-0.4l-10.7-8.1C326,157.3,324.9,157.5,324.3,157.6z"/>
					<path class="st18" d="M329.7,165.4c-0.8,0.1-1.7,0.3-2.3,0.5l16.2,12.3l2.3-0.4L329.7,165.4z"/>
					<polygon class="st18" points="342.6,163.2 327.4,165.8 329.3,167.2 344.4,164.6 					"/>
					<path class="st18" d="M342.6,163.2c-0.8,0.1-1.7,0.3-2.3,0.5l16.2,12.3l2.3-0.4L342.6,163.2z"/>
				</g>
				<g>
					<path class="st18" d="M316.1,143.9l-10.6-8.1l-2.2,0.4l10.7,8.1C314.5,144.3,315.6,144,316.1,143.9z"/>
					<path class="st18" d="M310.7,136.2c0.8-0.1,1.7-0.3,2.3-0.5l-16.2-12.3l-2.3,0.4L310.7,136.2z"/>
					<polygon class="st18" points="297.9,138.3 313.1,135.8 311.2,134.3 296,136.9 					"/>
					<path class="st18" d="M297.9,138.3c0.8-0.1,1.7-0.3,2.3-0.5L284,125.6l-2.3,0.4L297.9,138.3z"/>
				</g>
				<path class="st18" d="M352.3,140.5l27.6-3.4v-1.6l-29,3.5v0.1C351.4,139.6,351.8,140.1,352.3,140.5z"/>
				<path class="st18" d="M349.8,139.3l9.6,8l2.1-0.3l-9.6-8C351.3,139,350.3,139.2,349.8,139.3z"/>
				<path class="st18" d="M341.8,146.3l15.1-1.9l-0.8-1.6l-15.7,2C340.9,145.4,341.3,145.9,341.8,146.3z"/>
				<g>
					<g>
						<path class="st17" d="M359.8,143.6c1.9,0.4,2.4,0.6,6.9,0.5c0.1,0.2,0.3,0.2,0.5,0.2c0.8-0.1,1.6-0.2,2.4-0.3
							c0.2,0,0.3-0.1,0.3-0.2c0.4,0,0.7-0.1,1.1-0.1c0,0.1,0,0.2,0.2,0.2c0.1,0,0.1,0,0.2,0c3.1-0.4,6.3-0.7,9.4-1.1
							c0.1,0,0.3,0,0.3-0.2c0,0,0,0,0,0c0,0,0,0,0,0c0,0,0,0,0,0c0.3,0,0.7-0.1,1-0.1c0,0.1,0.1,0.2,0.3,0.2
							c0.9-0.1,1.7-0.2,2.6-0.3c0.2,0,0.2-0.1,0.2-0.2c0.4,0,0.8-0.1,1.2-0.1c0.2,0,0.3-0.1,0.4-0.2c0.1-0.1,0.2-0.2,0.2-0.3
							c0.2-0.4,0.5-0.7,0.7-1.2c0.4,0.5,1,0.4,1.5,0.3c0.2,0,0.4-0.1,0.6-0.1c0.1-0.2,0-0.3,0-0.5c0-0.3-0.1-0.6-0.1-0.8
							c0-0.4-0.1-0.7-0.1-1.1c0-0.2-0.1-0.2-0.3-0.2c-0.4,0.1-0.8,0.1-1.1,0.1c-0.3,0-0.4,0.3-0.7,0.4c-0.1-0.4-0.1-0.7-0.1-1
							c0-0.2-0.1-0.3-0.4-0.3c-0.2,0-0.5,0-0.7,0c0-0.7-0.1-1.4-0.1-2.1c0-0.1,0-0.2,0-0.4c-0.4,0-0.7,0.1-1.1,0.1c0,0,0,0,0,0
							c0,0,0,0,0,0c-0.3,0-0.7,0.1-1,0.1c-0.5,0.7-0.9,1.4-1.4,2.2c-0.1,0.1-0.1,0.2-0.2,0.3c-1.1,0.1-2.2,0.1-3.3,0.3
							c-1.9,0.1-3.7,0.3-5.6,0.6c-0.3,0-0.3,0.3-0.5,0.5c-0.2,0-11.4,1.7-14.1,4.7C358.9,143.4,359.3,143.5,359.8,143.6z"/>
					</g>
				</g>
				<path class="st18" d="M383.8,142.7l-24.8,3c0.5,0.5,1.1,0.9,1.6,1.4l23.2-2.9V142.7z"/>
				<g>
					<g>
						<path class="st18" d="M83.4,130.7l15.6-1.9c-0.3-0.3-0.7-0.6-1-0.9l-14.6,1.8V130.7z"/>
						<path class="st18" d="M103.2,132.1l-17.4,2.1v1l18.2-2.2v-0.1C103.8,132.6,103.6,132.3,103.2,132.1z"/>
						<path class="st18" d="M104.9,132.8l-6-5.1l-1.3,0.2l6.1,5.1C103.9,133,104.5,132.9,104.9,132.8z"/>
						<path class="st18" d="M109.9,128.4l-9.5,1.2l0.5,1l9.9-1.3C110.5,129,110.2,128.7,109.9,128.4z"/>
					</g>
					<g>
						<path class="st18" d="M175.4,118.6l-15.6,1.9c0.3,0.3,0.7,0.6,1,0.9l14.6-1.8V118.6z"/>
						<path class="st18" d="M155.6,117.2L173,115v-1l-18.2,2.2v0.1C155,116.6,155.2,117,155.6,117.2z"/>
						<path class="st18" d="M153.9,116.4l6,5.1l1.3-0.2l-6.1-5.1C154.9,116.3,154.3,116.4,153.9,116.4z"/>
						<path class="st18" d="M148.9,120.8l9.5-1.2l-0.5-1l-9.9,1.3C148.3,120.3,148.6,120.6,148.9,120.8z"/>
					</g>
				</g>
				<g>
					<path class="st18" d="M122.7,116l-6.3-4.8l-1.3,0.2l6.3,4.8C121.7,116.2,122.4,116,122.7,116z"/>
					<path class="st18" d="M119.5,111.4c0.5-0.1,1-0.2,1.4-0.3l-9.6-7.3l-1.4,0.2L119.5,111.4z"/>
					<polygon class="st18" points="111.9,112.6 120.9,111.1 119.8,110.3 110.8,111.8 					"/>
					<path class="st18" d="M111.9,112.6c0.5-0.1,1-0.2,1.4-0.3l-9.6-7.3l-1.4,0.2L111.9,112.6z"/>
				</g>
				<ellipse class="st18" cx="289.3" cy="252" rx="1" ry="0.9"/>
				<path class="st18" d="M297,260.8c1.8,0.1,3.2,1.3,3.2,2.9h0c0-1.6,1.4-2.9,3.2-2.9c-1.8-0.1-3.2-1.4-3.2-3h0
					C300.2,259.5,298.8,260.8,297,260.8z"/>
				<ellipse class="st18" cx="314.9" cy="257.8" rx="1" ry="0.9"/>
				<path class="st18" d="M311.7,257.8c1.8,0.1,3.2,1.3,3.2,2.9h0c0-1.6,1.4-2.9,3.2-2.9c-1.8-0.1-3.2-1.4-3.2-3h0
					C314.9,256.4,313.5,257.7,311.7,257.8z"/>
				<ellipse class="st18" cx="343.4" cy="220.4" rx="1" ry="0.9"/>
				<g>
					<g>
						<g class="st31">
							<g>
								<polygon class="st17" points="163.5,147.5 172.2,141.7 163.8,141.1 								"/>
							</g>
							<g>
								<polygon class="st17" points="172.7,141.4 181.4,138.3 174.5,136.3 								"/>
							</g>
							<g>
								<polygon class="st17" points="163.2,147.6 163.6,141.3 156.4,148.4 								"/>
							</g>
							<g>
								<polygon class="st17" points="172.4,141.5 174.2,136.4 164.2,140.9 								"/>
							</g>
							<g>
								<polygon class="st17" points="157.8,154.1 163.1,147.9 156.2,148.6 								"/>
							</g>
							<g>
								<polygon class="st17" points="183.4,143.9 191.5,140.2 181.9,138.5 								"/>
							</g>
							<g>
								<polygon class="st17" points="182,138.3 191.5,140 186.4,135.5 								"/>
							</g>
							<g>
								<polygon class="st17" points="181.7,138.2 186,135.5 175,136.3 								"/>
							</g>
							<g>
								<polygon class="st17" points="175.7,159 168.6,165.6 180,167.3 								"/>
							</g>
							<g>
								<polygon class="st17" points="185.7,160.9 176,159 180.3,167.2 								"/>
							</g>
							<g>
								<polygon class="st17" points="175.5,158.9 165.2,156.5 168.4,165.4 								"/>
							</g>
							<g>
								<polygon class="st17" points="183.6,144 194.4,147.8 191.8,140.4 								"/>
							</g>
							<g>
								<polygon class="st17" points="185.9,161 180.5,167.3 192,166.5 								"/>
							</g>
							<g>
								<polygon class="st17" points="153.4,157.3 157.6,154.3 156,149 								"/>
							</g>
							<g>
								<polygon class="st17" points="158.5,162.2 157.7,154.6 153.4,157.6 								"/>
							</g>
							<g>
								<polygon class="st17" points="194.9,157.7 186.1,160.8 192.2,166.4 								"/>
							</g>
							<g>
								<polygon class="st17" points="164.7,156.4 157.9,154.5 158.8,162.2 								"/>
							</g>
							<g>
								<polygon class="st17" points="164.9,156.6 158.9,162.4 168.1,165.5 								"/>
							</g>
							<g>
								<polygon class="st17" points="173.2,149.6 163.5,147.9 165.1,156.1 								"/>
							</g>
							<g>
								<polygon class="st17" points="158,154.3 164.8,156.2 163.3,148 								"/>
							</g>
							<g>
								<polygon class="st17" points="173.6,149.4 183,144.1 172.7,141.7 								"/>
							</g>
							<g>
								<polygon class="st17" points="194.3,148 183.5,144.2 185.1,152.5 								"/>
							</g>
							<g>
								<polygon class="st17" points="194.7,147.9 201.8,145 192.1,140.4 								"/>
							</g>
							<g>
								<polygon class="st17" points="210.2,152.3 207.5,147.2 208.4,150.7 								"/>
							</g>
							<g>
								<polygon class="st17" points="208.1,150.7 202.3,145.3 203.8,153.4 								"/>
							</g>
							<g>
								<polygon class="st17" points="194.9,148.1 203.5,153.4 202,145.1 								"/>
							</g>
							<g>
								<polygon class="st17" points="173.7,149.5 184.8,152.5 183.2,144.2 								"/>
							</g>
							<g>
								<polygon class="st17" points="194.5,148.2 185.2,152.7 195,157.3 								"/>
							</g>
							<g>
								<polygon class="st17" points="194.8,157.5 185.1,152.9 186,160.6 								"/>
							</g>
							<g>
								<polygon class="st17" points="181.6,138.5 172.9,141.6 183.1,143.9 								"/>
							</g>
							<g>
								<polygon class="st17" points="203.5,153.6 194.8,148.3 195.3,157.3 								"/>
							</g>
							<g>
								<polygon class="st17" points="184.8,152.9 176.1,158.8 185.8,160.7 								"/>
							</g>
							<g>
								<polygon class="st17" points="163.6,147.7 173.3,149.4 172.4,141.8 								"/>
							</g>
							<g>
								<polygon class="st17" points="173.4,149.8 165.2,156.3 175.6,158.7 								"/>
							</g>
							<g>
								<polygon class="st17" points="184.7,152.7 173.6,149.7 175.9,158.6 								"/>
							</g>
							<g>
								<polygon class="st17" points="155.8,148.9 153.5,151 153,151.8 152.9,154 153.2,157 								"/>
							</g>
							<g>
								<polygon class="st17" points="158.9,162.7 163.1,170.6 163.3,170.7 168.1,165.7 								"/>
							</g>
							<g>
								<polygon class="st17" points="163.6,170.8 173.5,173.1 168.3,165.8 								"/>
							</g>
							<g>
								<polygon class="st17" points="168.6,165.8 173.8,173.1 174,173.2 174.1,173.2 180,167.5 								"/>
							</g>
							<g>
								<polygon class="st17" points="152.9,155.9 152.7,158.7 153,157.6 								"/>
							</g>
							<g>
								<polygon class="st17" points="174.5,173.2 185.8,173.7 180.3,167.6 								"/>
							</g>
							<g>
								<polygon class="st17" points="152.7,159.9 152.6,161.3 154.8,165.1 153.2,158.2 								"/>
							</g>
							<g>
								<polygon class="st17" points="153.4,158 155.3,165.9 155.6,166.5 158.5,162.5 								"/>
							</g>
							<g>
								<polygon class="st17" points="155.8,166.8 155.8,166.8 162.7,170.4 158.7,162.7 								"/>
							</g>
							<g>
								<polygon class="st17" points="202.8,163.2 206.3,167.6 206.6,167.3 209.1,159.1 								"/>
							</g>
							<g>
								<polygon class="st17" points="210.5,161.6 210.7,155.4 209.5,158.9 								"/>
							</g>
							<g>
								<polygon class="st17" points="180.5,167.5 186.2,173.7 186.3,173.7 186.5,173.7 192,166.7 								"/>
							</g>
							<g>
								<polygon class="st17" points="208.4,151.1 209.4,158.3 210.8,154.5 210.8,153.5 210.5,153 								"/>
							</g>
							<g>
								<polygon class="st17" points="207,166.8 210.4,163 210.4,162.3 209.4,159.3 								"/>
							</g>
							<g>
								<polygon class="st17" points="198.4,171.2 206.1,167.7 202.6,163.4 								"/>
							</g>
							<g>
								<polygon class="st17" points="186.9,173.6 197.4,171.6 192.3,166.8 								"/>
							</g>
							<g>
								<polygon class="st17" points="192.5,166.6 197.7,171.5 197.7,171.5 198,171.4 202.3,163.4 								"/>
							</g>
							<g>
								<polygon class="st17" points="195.2,157.7 192.4,166.4 202.3,163.2 								"/>
							</g>
							<g>
								<polygon class="st17" points="206.1,144.8 204.3,143.2 199,139.4 198.5,139.2 202.2,144.9 								"/>
							</g>
							<g>
								<polygon class="st17" points="201,140.3 200.1,139.9 202.4,141.6 								"/>
							</g>
							<g>
								<polygon class="st17" points="157,145.5 154,150.2 155.9,148.5 								"/>
							</g>
							<g>
								<polygon class="st17" points="201.8,144.7 198.1,139 197.6,138.7 192.2,140.2 								"/>
							</g>
							<g>
								<polygon class="st17" points="203.5,153.8 195.4,157.5 202.5,163 								"/>
							</g>
							<g>
								<polygon class="st17" points="191.9,140.1 197.3,138.6 196.5,138.2 186.9,135.6 								"/>
							</g>
							<g>
								<polygon class="st17" points="208.1,151 203.9,153.6 209.2,158.5 								"/>
							</g>
							<g>
								<polygon class="st17" points="203.8,153.9 202.7,163 209.2,158.8 								"/>
							</g>
							<g>
								<polygon class="st17" points="208,150.4 207,146.2 206.4,145.1 206.3,145 202.4,145.1 								"/>
							</g>
							<g>
								<polygon class="st17" points="173.8,136.4 169.1,136.9 167.4,137.3 166.6,137.8 164.1,140.6 								"/>
							</g>
							<g>
								<polygon class="st17" points="165.8,138.3 159.9,142.3 163.6,140.9 								"/>
							</g>
							<g>
								<polygon class="st17" points="163.2,141.2 159.1,142.8 158.3,143.3 157.6,144.5 156.4,148 								"/>
							</g>
							<g>
								<polygon class="st17" points="176.6,135 170.7,136.5 174.4,136.1 								"/>
							</g>
							<g>
								<polygon class="st17" points="186.9,135.2 185.6,135.1 186.4,135.2 								"/>
							</g>
							<g>
								<polygon class="st17" points="190.9,135.6 188.8,135.4 187.2,135.4 195.4,137.7 								"/>
							</g>
							<g>
								<polygon class="st17" points="185.5,135.3 182.5,134.8 178.9,134.5 177.8,134.8 175,136 								"/>
							</g>
						</g>
						<g>
							<path class="st17" d="M207.2,144.8c0,0,0-0.1-0.1-0.1l-5.5-4.9c0,0-0.1-0.1-0.1-0.1l-10.2-4.8c-0.1,0-0.1,0-0.2,0l-12.2-1.1
								c-0.1,0-0.1,0-0.2,0l-11.7,2.8c-0.1,0-0.1,0-0.2,0.1l-9.2,6.2c0,0-0.1,0.1-0.1,0.1l-5.4,8.6c0,0,0,0.1,0,0.1l-0.4,9.6
								c0,0.1,0,0.1,0,0.2l3.3,5.7c0,0.1,0.1,0.1,0.2,0.1l7.7,4c0,0,0.1,0,0.1,0l10.8,2.5c0,0,0.1,0,0.1,0l12.4,0.6c0,0,0,0,0,0
								c0,0,0.1,0,0.1,0l11.6-2.3c0,0,0.1,0,0.1,0l8.6-3.9c0.1,0,0.1-0.1,0.1-0.1l4.4-4.9c0-0.1,0.1-0.1,0.1-0.2l0.4-9.6
								c0-0.1,0-0.1,0-0.1L207.2,144.8z M206.3,167.6l-3.5-4.3l6.4-4.1l-2.6,8.1L206.3,167.6z M197.7,171.5L197.7,171.5l-5.3-4.9
								l9.9-3.2l-4.3,8L197.7,171.5z M186.2,173.7l-5.7-6.2l11.5-0.8l-5.5,7l-0.2,0L186.2,173.7z M174,173.2l-0.2,0l-5.3-7.3
								l11.4,1.7l-5.9,5.7L174,173.2z M155.3,165.9l-1.9-8l5.1,4.5l-2.9,4L155.3,165.9z M158.3,143.3l0.8-0.6l4.1-1.5l-6.9,6.8
								l1.3-3.6L158.3,143.3z M167.4,137.3l1.7-0.4l4.7-0.5l-9.6,4.3l2.4-2.8L167.4,137.3z M178.9,134.5l3.5,0.3l3,0.5L175,136
								l2.7-1.3L178.9,134.5z M183.5,144.2l10.8,3.8l-9.3,4.5L183.5,144.2z M184.8,152.5l-11-3l9.5-5.3L184.8,152.5z M173.6,149.4
								l-0.9-7.6l10.3,2.4L173.6,149.4z M184.7,152.7l-8.8,5.9l-2.2-8.9L184.7,152.7z M194.5,148.2l0.5,9.1l-9.8-4.6L194.5,148.2z
								 M183.6,144l8.2-3.7l2.6,7.5L183.6,144z M183.4,143.9l-1.5-5.4l9.6,1.8L183.4,143.9z M183.1,143.9l-10.2-2.3l8.7-3.1
								L183.1,143.9z M173.3,149.4l-9.6-1.7l8.8-5.9L173.3,149.4z M173.2,149.6l-8.1,6.5l-1.5-8.3L173.2,149.6z M173.4,149.8
								l2.2,8.9l-10.4-2.4L173.4,149.8z M184.8,152.9l0.9,7.8l-9.7-1.9L184.8,152.9z M185.1,152.9l9.7,4.6l-8.8,3.2L185.1,152.9z
								 M194.8,148.3l8.7,5.3l-8.2,3.7L194.8,148.3z M192.1,140.4l9.7,4.6l-7.1,2.9L192.1,140.4z M182,138.3l4.4-2.8l5.1,4.5
								L182,138.3z M172.7,141.4l1.8-5.1l6.8,2L172.7,141.4z M163.5,147.5l0.3-6.4l8.4,0.6L163.5,147.5z M164.8,156.2l-6.8-1.9
								l5.3-6.3L164.8,156.2z M164.7,156.4l-6,5.8l-0.8-7.7L164.7,156.4z M175.5,158.9l-7.1,6.5l-3.2-8.9L175.5,158.9z M185.7,160.9
								l-5.4,6.3L176,159L185.7,160.9z M194.9,157.7l-2.8,8.7l-6-5.5L194.9,157.7z M203.5,153.8l-1.1,9.2l-7.1-5.5L203.5,153.8z
								 M194.9,148.1l7.1-2.9l1.5,8.2L194.9,148.1z M192.2,140.2l5.4-1.5l0.5,0.3l3.6,5.7L192.2,140.2z M197.3,138.6l-5.3,1.5
								l-5.1-4.5l9.7,2.6L197.3,138.6z M181.7,138.2l-6.7-1.9l10.9-0.8L181.7,138.2z M172.4,141.5l-8.3-0.6l10.1-4.5L172.4,141.5z
								 M163.2,147.6l-6.9,0.7l7.2-7.1L163.2,147.6z M163.1,147.9l-5.2,6.2l-1.6-5.5L163.1,147.9z M158.5,162.2l-5.1-4.5l4.3-3
								L158.5,162.2z M164.9,156.6l3.2,8.9l-9.2-3L164.9,156.6z M175.7,159l4.3,8.2l-11.5-1.7L175.7,159z M185.9,161l6,5.5
								l-11.4,0.8L185.9,161z M195.2,157.7l7.1,5.5l-9.9,3.2L195.2,157.7z M203.8,153.9l5.4,5l-6.4,4.1L203.8,153.9z M202.3,145.3
								l5.8,5.4l-4.3,2.7L202.3,145.3z M202.4,145.1l3.9-0.1l0.1,0.1l0.6,1.1l1.1,4.2L202.4,145.1z M206.1,144.8l-3.9,0.1l-3.6-5.7
								l0.4,0.2l5.3,3.8L206.1,144.8z M200.1,139.9l0.9,0.4l1.4,1.3L200.1,139.9z M190.9,135.6l4.4,2.1l-8.2-2.2l1.7,0L190.9,135.6z
								 M186.4,135.2l-0.8-0.1l1.3,0.1L186.4,135.2z M174.4,136.1l-3.7,0.4l6-1.4L174.4,136.1z M163.6,140.9l-3.7,1.4l5.9-3.9
								L163.6,140.9z M155.9,148.5l-1.9,1.8l2.9-4.7L155.9,148.5z M157.6,154.3l-4.2,3l2.6-8.3L157.6,154.3z M158.7,162.7l4,7.6
								l-6.9-3.6l0,0L158.7,162.7z M158.9,162.7l9.2,3l-4.8,5l-0.3-0.1L158.9,162.7z M168.3,165.8l5.2,7.2l-9.9-2.3L168.3,165.8z
								 M180.3,167.6l5.6,6.1l-11.3-0.5L180.3,167.6z M192.3,166.8l5.2,4.8l-10.6,2.1L192.3,166.8z M202.6,163.4l3.5,4.3l-7.7,3.5
								L202.6,163.4z M203.9,153.6l4.3-2.7l1,7.6L203.9,153.6z M208.4,150.7l-0.9-3.5l2.7,5.1L208.4,150.7z M153,151.8l0.5-0.8
								l2.2-2.1l-2.5,8l-0.3-3L153,151.8z M153,157.6l-0.3,1.1l0.1-2.8L153,157.6z M153.2,158.2l1.7,7l-2.2-3.8l0.1-1.3L153.2,158.2
								z M210.4,163l-3.4,3.8l2.4-7.5l1,3L210.4,163z M209.5,158.9l1.2-3.5l-0.3,6.2L209.5,158.9z M209.4,158.3l-1-7.2l2.1,1.9
								l0.3,0.6l0,1L209.4,158.3z"/>
						</g>
					</g>
					<g>
						<g class="st31">
							<g>
								<polygon class="st17" points="252.7,215.1 260,210.1 252.9,209.6 								"/>
							</g>
							<g>
								<polygon class="st17" points="260.5,209.9 267.8,207.3 262,205.6 								"/>
							</g>
							<g>
								<polygon class="st17" points="252.4,215.2 252.7,209.8 246.6,215.8 								"/>
							</g>
							<g>
								<polygon class="st17" points="260.2,209.9 261.7,205.7 253.2,209.4 								"/>
							</g>
							<g>
								<polygon class="st17" points="247.8,220.7 252.3,215.4 246.5,216 								"/>
							</g>
							<g>
								<polygon class="st17" points="269.6,212 276.4,208.9 268.3,207.4 								"/>
							</g>
							<g>
								<polygon class="st17" points="268.4,207.2 276.4,208.7 272.1,204.9 								"/>
							</g>
							<g>
								<polygon class="st17" points="268.1,207.2 271.7,204.9 262.4,205.5 								"/>
							</g>
							<g>
								<polygon class="st17" points="263,224.9 257,230.4 266.7,231.9 								"/>
							</g>
							<g>
								<polygon class="st17" points="271.5,226.4 263.3,224.8 266.9,231.8 								"/>
							</g>
							<g>
								<polygon class="st17" points="262.9,224.7 254.1,222.7 256.8,230.3 								"/>
							</g>
							<g>
								<polygon class="st17" points="269.7,212.1 278.9,215.4 276.7,209 								"/>
							</g>
							<g>
								<polygon class="st17" points="271.7,226.5 267.1,231.9 276.8,231.2 								"/>
							</g>
							<g>
								<polygon class="st17" points="244.1,223.4 247.7,220.9 246.3,216.3 								"/>
							</g>
							<g>
								<polygon class="st17" points="248.4,227.5 247.7,221.1 244,223.7 								"/>
							</g>
							<g>
								<polygon class="st17" points="279.3,223.7 271.9,226.4 277,231.1 								"/>
							</g>
							<g>
								<polygon class="st17" points="253.7,222.6 247.9,221 248.6,227.6 								"/>
							</g>
							<g>
								<polygon class="st17" points="253.9,222.8 248.7,227.7 256.6,230.3 								"/>
							</g>
							<g>
								<polygon class="st17" points="260.9,216.9 252.7,215.4 254,222.4 								"/>
							</g>
							<g>
								<polygon class="st17" points="248,220.8 253.8,222.5 252.5,215.5 								"/>
							</g>
							<g>
								<polygon class="st17" points="261.2,216.6 269.2,212.2 260.4,210.2 								"/>
							</g>
							<g>
								<polygon class="st17" points="278.8,215.5 269.6,212.3 270.9,219.3 								"/>
							</g>
							<g>
								<polygon class="st17" points="279.1,215.4 285.2,212.9 276.9,209.1 								"/>
							</g>
							<g>
								<polygon class="st17" points="292.3,219.2 290,214.8 290.7,217.8 								"/>
							</g>
							<g>
								<polygon class="st17" points="290.5,217.8 285.6,213.2 286.9,220.1 								"/>
							</g>
							<g>
								<polygon class="st17" points="279.3,215.5 286.6,220 285.3,213.1 								"/>
							</g>
							<g>
								<polygon class="st17" points="261.3,216.8 270.7,219.3 269.4,212.3 								"/>
							</g>
							<g>
								<polygon class="st17" points="279,215.7 271.1,219.5 279.4,223.4 								"/>
							</g>
							<g>
								<polygon class="st17" points="279.3,223.5 271,219.6 271.8,226.2 								"/>
							</g>
							<g>
								<polygon class="st17" points="268,207.4 260.6,210 269.3,212 								"/>
							</g>
							<g>
								<polygon class="st17" points="286.6,220.2 279.2,215.7 279.6,223.4 								"/>
							</g>
							<g>
								<polygon class="st17" points="270.8,219.7 263.3,224.7 271.6,226.2 								"/>
							</g>
							<g>
								<polygon class="st17" points="252.8,215.2 261,216.7 260.2,210.2 								"/>
							</g>
							<g>
								<polygon class="st17" points="261,217 254.1,222.6 262.9,224.6 								"/>
							</g>
							<g>
								<polygon class="st17" points="270.6,219.5 261.2,216.9 263.1,224.5 								"/>
							</g>
							<g>
								<polygon class="st17" points="246.1,216.3 244.2,218.1 243.8,218.8 243.7,220.6 243.9,223.1 								"/>
							</g>
							<g>
								<polygon class="st17" points="248.8,227.9 252.3,234.7 252.5,234.8 256.6,230.5 								"/>
							</g>
							<g>
								<polygon class="st17" points="252.7,234.8 261.1,236.8 256.7,230.6 								"/>
							</g>
							<g>
								<polygon class="st17" points="257,230.6 261.4,236.8 261.6,236.9 261.7,236.9 266.7,232 								"/>
							</g>
							<g>
								<polygon class="st17" points="243.6,222.2 243.5,224.6 243.8,223.6 								"/>
							</g>
							<g>
								<polygon class="st17" points="262,236.9 271.6,237.3 266.9,232.1 								"/>
							</g>
							<g>
								<polygon class="st17" points="243.5,225.6 243.4,226.8 245.3,230 243.9,224.1 								"/>
							</g>
							<g>
								<polygon class="st17" points="244.1,224 245.7,230.7 246,231.2 248.4,227.8 								"/>
							</g>
							<g>
								<polygon class="st17" points="246.1,231.4 246.1,231.4 251.9,234.5 248.5,228 								"/>
							</g>
							<g>
								<polygon class="st17" points="286,228.4 289,232.1 289.2,231.8 291.4,225 								"/>
							</g>
							<g>
								<polygon class="st17" points="292.5,227 292.7,221.8 291.7,224.7 								"/>
							</g>
							<g>
								<polygon class="st17" points="267.1,232.1 271.9,237.3 272,237.3 272.2,237.3 276.8,231.4 								"/>
							</g>
							<g>
								<polygon class="st17" points="290.8,218.1 291.6,224.2 292.8,221 292.8,220.2 292.5,219.7 								"/>
							</g>
							<g>
								<polygon class="st17" points="289.6,231.4 292.5,228.2 292.5,227.6 291.6,225.1 								"/>
							</g>
							<g>
								<polygon class="st17" points="282.3,235.2 288.8,232.2 285.8,228.6 								"/>
							</g>
							<g>
								<polygon class="st17" points="272.5,237.3 281.5,235.5 277.1,231.4 								"/>
							</g>
							<g>
								<polygon class="st17" points="277.2,231.3 281.7,235.4 281.7,235.4 281.9,235.3 285.6,228.6 								"/>
							</g>
							<g>
								<polygon class="st17" points="279.6,223.7 277.2,231.1 285.6,228.4 								"/>
							</g>
							<g>
								<polygon class="st17" points="288.8,212.8 287.2,211.4 282.8,208.2 282.4,208 285.5,212.8 								"/>
							</g>
							<g>
								<polygon class="st17" points="284.5,209 283.7,208.6 285.7,210 								"/>
							</g>
							<g>
								<polygon class="st17" points="247.1,213.4 244.6,217.4 246.2,215.9 								"/>
							</g>
							<g>
								<polygon class="st17" points="285.1,212.7 282,207.8 281.6,207.6 277,208.9 								"/>
							</g>
							<g>
								<polygon class="st17" points="286.6,220.4 279.7,223.6 285.7,228.2 								"/>
							</g>
							<g>
								<polygon class="st17" points="276.8,208.8 281.3,207.5 280.7,207.2 272.5,205 								"/>
							</g>
							<g>
								<polygon class="st17" points="290.5,218 286.9,220.3 291.4,224.4 								"/>
							</g>
							<g>
								<polygon class="st17" points="286.9,220.5 286,228.2 291.4,224.7 								"/>
							</g>
							<g>
								<polygon class="st17" points="290.4,217.5 289.5,214 289,213 289,213 285.6,213 								"/>
							</g>
							<g>
								<polygon class="st17" points="261.4,205.6 257.4,206 255.9,206.4 255.3,206.8 253.2,209.2 								"/>
							</g>
							<g>
								<polygon class="st17" points="254.6,207.3 249.6,210.6 252.8,209.4 								"/>
							</g>
							<g>
								<polygon class="st17" points="252.4,209.8 249,211.1 248.3,211.5 247.7,212.5 246.6,215.5 								"/>
							</g>
							<g>
								<polygon class="st17" points="263.8,204.5 258.7,205.7 261.9,205.4 								"/>
							</g>
							<g>
								<polygon class="st17" points="272.5,204.7 271.4,204.6 272.1,204.7 								"/>
							</g>
							<g>
								<polygon class="st17" points="275.9,205 274.2,204.8 272.7,204.8 279.7,206.7 								"/>
							</g>
							<g>
								<polygon class="st17" points="271.3,204.7 268.7,204.3 265.7,204 264.8,204.3 262.4,205.3 								"/>
							</g>
						</g>
						<g>
							<path class="st17" d="M289.7,212.7C289.7,212.7,289.7,212.7,289.7,212.7l-4.7-4.2c0,0-0.1,0-0.1-0.1l-8.6-4.1
								c0,0-0.1,0-0.2,0l-10.4-1c-0.1,0-0.1,0-0.2,0l-10,2.4c-0.1,0-0.1,0-0.1,0.1l-7.8,5.2c0,0-0.1,0.1-0.1,0.1l-4.6,7.3
								c0,0,0,0.1,0,0.1l-0.3,8.1c0,0,0,0.1,0,0.1l2.8,4.8c0,0.1,0.1,0.1,0.1,0.1l6.6,3.4c0,0,0.1,0,0.1,0l9.2,2.1c0,0,0.1,0,0.1,0
								l10.5,0.5c0,0,0,0,0,0c0,0,0.1,0,0.1,0l9.8-1.9c0,0,0.1,0,0.1,0l7.3-3.3c0,0,0.1-0.1,0.1-0.1l3.7-4.2c0,0,0.1-0.1,0.1-0.2
								l0.4-8.1c0,0,0-0.1,0-0.1L289.7,212.7z M289,232.1l-3-3.7l5.4-3.5l-2.2,6.9L289,232.1z M281.7,235.4L281.7,235.4l-4.5-4.1
								l8.4-2.7l-3.7,6.8L281.7,235.4z M271.9,237.3l-4.8-5.3l9.7-0.7l-4.7,5.9l-0.2,0L271.9,237.3z M261.6,236.9l-0.2,0l-4.5-6.2
								l9.7,1.4L261.6,236.9L261.6,236.9z M245.7,230.7l-1.6-6.8l4.3,3.8l-2.4,3.4L245.7,230.7z M248.3,211.5l0.7-0.5l3.5-1.3
								l-5.8,5.8l1.1-3L248.3,211.5z M255.9,206.4l1.5-0.4l4-0.4l-8.2,3.6l2.1-2.4L255.9,206.4z M265.7,204l3,0.3l2.6,0.4l-8.9,0.6
								l2.3-1.1L265.7,204z M269.6,212.3l9.2,3.2l-7.9,3.8L269.6,212.3z M270.7,219.3l-9.4-2.6l8.1-4.5L270.7,219.3z M261.2,216.6
								l-0.7-6.5l8.8,2L261.2,216.6z M270.6,219.5l-7.5,5l-1.9-7.6L270.6,219.5z M279,215.7l0.4,7.7l-8.3-3.9L279,215.7z
								 M269.7,212.1l6.9-3.1l2.2,6.4L269.7,212.1z M269.6,212l-1.3-4.6l8.2,1.5L269.6,212z M269.3,212l-8.7-2l7.4-2.6L269.3,212z
								 M261,216.7l-8.2-1.5l7.4-5L261,216.7z M260.9,216.9l-6.9,5.5l-1.3-7L260.9,216.9z M261,217l1.9,7.6l-8.8-2L261,217z
								 M270.8,219.7l0.8,6.6l-8.2-1.6L270.8,219.7z M271,219.6l8.3,3.9l-7.5,2.7L271,219.6z M279.2,215.7l7.4,4.5l-7,3.1
								L279.2,215.7z M276.9,209.1l8.2,3.9l-6,2.5L276.9,209.1z M268.4,207.2l3.7-2.3l4.3,3.8L268.4,207.2z M260.5,209.9l1.5-4.3
								l5.8,1.7L260.5,209.9z M252.7,215.1l0.3-5.5l7.1,0.5L252.7,215.1z M253.8,222.5l-5.8-1.6l4.5-5.3L253.8,222.5z M253.7,222.6
								l-5.1,4.9l-0.7-6.5L253.7,222.6z M262.9,224.7l-6.1,5.5l-2.7-7.6L262.9,224.7z M271.5,226.4l-4.6,5.4l-3.6-7L271.5,226.4z
								 M279.3,223.7l-2.3,7.4l-5.1-4.7L279.3,223.7z M286.6,220.4l-0.9,7.8l-6-4.7L286.6,220.4z M279.3,215.5l6-2.5l1.3,7
								L279.3,215.5z M277,208.9l4.6-1.3l0.5,0.2l3.1,4.9L277,208.9z M281.3,207.5l-4.5,1.3l-4.3-3.8l8.2,2.2L281.3,207.5z
								 M268.1,207.2l-5.7-1.6l9.3-0.7L268.1,207.2z M260.2,210l-7-0.5l8.5-3.8L260.2,210z M252.4,215.2l-5.8,0.6l6.1-6L252.4,215.2
								z M252.3,215.4l-4.4,5.3l-1.4-4.7L252.3,215.4z M248.4,227.5l-4.4-3.9l3.7-2.6L248.4,227.5z M253.9,222.8l2.7,7.5l-7.8-2.6
								L253.9,222.8z M263,224.9l3.7,7l-9.7-1.5L263,224.9z M271.7,226.5l5.1,4.7l-9.7,0.7L271.7,226.5z M279.6,223.7l6.1,4.7
								l-8.4,2.7L279.6,223.7z M286.9,220.5l4.6,4.2l-5.5,3.5L286.9,220.5z M285.6,213.2l4.9,4.6l-3.6,2.3L285.6,213.2z M285.6,213
								l3.3-0.1l0.1,0.1l0.5,0.9l0.9,3.6L285.6,213z M288.8,212.8l-3.3,0.1l-3.1-4.8l0.4,0.2l4.5,3.3L288.8,212.8z M283.7,208.6
								l0.7,0.3l1.2,1.1L283.7,208.6z M275.9,205l3.8,1.8l-7-1.9l1.4,0L275.9,205z M272.1,204.7l-0.7-0.1l1.1,0.1L272.1,204.7z
								 M261.9,205.4l-3.2,0.3l5.1-1.2L261.9,205.4z M252.8,209.4l-3.1,1.2l5-3.3L252.8,209.4z M246.2,215.9l-1.6,1.5l2.5-4
								L246.2,215.9z M247.7,220.9l-3.6,2.5l2.2-7.1L247.7,220.9z M248.5,228l3.4,6.5l-5.8-3l0,0L248.5,228z M248.8,228l7.8,2.6
								l-4.1,4.3l-0.2-0.1L248.8,228z M256.7,230.6l4.4,6.1l-8.4-1.9L256.7,230.6z M266.9,232.1l4.7,5.2l-9.6-0.4L266.9,232.1z
								 M277.1,231.4l4.4,4.1l-9,1.8L277.1,231.4z M285.8,228.6l3,3.6l-6.6,2.9L285.8,228.6z M286.9,220.3l3.6-2.3l0.9,6.4
								L286.9,220.3z M290.7,217.8l-0.8-3l2.3,4.3L290.7,217.8z M243.8,218.8l0.4-0.7l1.9-1.8l-2.2,6.8l-0.3-2.5L243.8,218.8z
								 M243.8,223.7l-0.2,0.9l0.1-2.4L243.8,223.7z M243.9,224.1l1.4,5.9l-1.9-3.3l0-1.1L243.9,224.1z M292.5,228.2l-2.9,3.2l2-6.4
								l0.9,2.5L292.5,228.2z M291.7,224.7l1-2.9l-0.2,5.2L291.7,224.7z M291.6,224.2l-0.8-6.1l1.8,1.6l0.3,0.5l0,0.8L291.6,224.2z"
								/>
						</g>
					</g>
					<g>
						<g class="st31">
							<g>
								<polygon class="st17" points="4.3,173.6 11.7,168.6 4.6,168.1 								"/>
							</g>
							<g>
								<polygon class="st17" points="12.2,168.4 19.5,165.8 13.7,164.1 								"/>
							</g>
							<g>
								<polygon class="st17" points="4.1,173.7 4.4,168.3 -1.7,174.3 								"/>
							</g>
							<g>
								<polygon class="st17" points="11.9,168.5 13.4,164.2 4.9,168 								"/>
							</g>
							<g>
								<polygon class="st17" points="-0.5,179.2 4,173.9 -1.8,174.5 								"/>
							</g>
							<g>
								<polygon class="st17" points="21.3,170.5 28.1,167.4 20,165.9 								"/>
							</g>
							<g>
								<polygon class="st17" points="20.1,165.7 28.1,167.2 23.8,163.4 								"/>
							</g>
							<g>
								<polygon class="st17" points="19.8,165.7 23.4,163.4 14.1,164 								"/>
							</g>
							<g>
								<polygon class="st17" points="14.7,183.4 8.7,188.9 18.4,190.4 								"/>
							</g>
							<g>
								<polygon class="st17" points="23.2,184.9 15,183.3 18.6,190.3 								"/>
							</g>
							<g>
								<polygon class="st17" points="14.6,183.3 5.8,181.2 8.5,188.8 								"/>
							</g>
							<g>
								<polygon class="st17" points="21.4,170.7 30.6,173.9 28.4,167.5 								"/>
							</g>
							<g>
								<polygon class="st17" points="23.4,185 18.8,190.4 28.5,189.7 								"/>
							</g>
							<g>
								<polygon class="st17" points="-4.2,181.9 -0.6,179.4 -2,174.8 								"/>
							</g>
							<g>
								<polygon class="st17" points="0.1,186 -0.6,179.6 -4.3,182.2 								"/>
							</g>
							<g>
								<polygon class="st17" points="31,182.2 23.6,184.9 28.7,189.6 								"/>
							</g>
							<g>
								<polygon class="st17" points="5.4,181.2 -0.4,179.5 0.3,186.1 								"/>
							</g>
							<g>
								<polygon class="st17" points="5.5,181.3 0.4,186.3 8.3,188.8 								"/>
							</g>
							<g>
								<polygon class="st17" points="12.6,175.4 4.4,173.9 5.7,180.9 								"/>
							</g>
							<g>
								<polygon class="st17" points="-0.3,179.4 5.5,181 4.2,174 								"/>
							</g>
							<g>
								<polygon class="st17" points="12.9,175.2 20.9,170.7 12.1,168.7 								"/>
							</g>
							<g>
								<polygon class="st17" points="30.5,174.1 21.3,170.8 22.6,177.8 								"/>
							</g>
							<g>
								<polygon class="st17" points="30.8,173.9 36.9,171.4 28.6,167.6 								"/>
							</g>
							<g>
								<polygon class="st17" points="44,177.7 41.7,173.3 42.4,176.3 								"/>
							</g>
							<g>
								<polygon class="st17" points="42.2,176.3 37.3,171.8 38.5,178.6 								"/>
							</g>
							<g>
								<polygon class="st17" points="31,174.1 38.3,178.6 37,171.6 								"/>
							</g>
							<g>
								<polygon class="st17" points="13,175.3 22.4,177.9 21.1,170.8 								"/>
							</g>
							<g>
								<polygon class="st17" points="30.7,174.2 22.8,178 31.1,181.9 								"/>
							</g>
							<g>
								<polygon class="st17" points="30.9,182 22.7,178.2 23.5,184.7 								"/>
							</g>
							<g>
								<polygon class="st17" points="19.7,165.9 12.3,168.5 21,170.5 								"/>
							</g>
							<g>
								<polygon class="st17" points="38.3,178.8 30.9,174.2 31.3,181.9 								"/>
							</g>
							<g>
								<polygon class="st17" points="22.5,178.2 15,183.2 23.2,184.8 								"/>
							</g>
							<g>
								<polygon class="st17" points="4.5,173.7 12.7,175.2 11.9,168.7 								"/>
							</g>
							<g>
								<polygon class="st17" points="12.7,175.5 5.8,181.1 14.6,183.1 								"/>
							</g>
							<g>
								<polygon class="st17" points="22.3,178 12.9,175.5 14.8,183 								"/>
							</g>
							<g>
								<polygon class="st17" points="-2.2,174.8 -4.1,176.6 -4.5,177.3 -4.6,179.1 -4.4,181.6 								"/>
							</g>
							<g>
								<polygon class="st17" points="0.5,186.5 4,193.2 4.2,193.3 8.3,189 								"/>
							</g>
							<g>
								<polygon class="st17" points="4.4,193.4 12.8,195.3 8.4,189.2 								"/>
							</g>
							<g>
								<polygon class="st17" points="8.7,189.1 13.1,195.4 13.3,195.4 13.4,195.4 18.4,190.6 								"/>
							</g>
							<g>
								<polygon class="st17" points="-4.7,180.7 -4.8,183.1 -4.5,182.2 								"/>
							</g>
							<g>
								<polygon class="st17" points="13.7,195.4 23.3,195.8 18.6,190.7 								"/>
							</g>
							<g>
								<polygon class="st17" points="-4.8,184.2 -4.9,185.3 -3,188.5 -4.4,182.6 								"/>
							</g>
							<g>
								<polygon class="st17" points="-4.2,182.5 -2.6,189.2 -2.3,189.7 0.1,186.3 								"/>
							</g>
							<g>
								<polygon class="st17" points="-2.2,189.9 -2.2,190 3.6,193 0.2,186.5 								"/>
							</g>
							<g>
								<polygon class="st17" points="37.7,186.9 40.7,190.6 40.9,190.4 43.1,183.5 								"/>
							</g>
							<g>
								<polygon class="st17" points="44.2,185.5 44.4,180.3 43.4,183.2 								"/>
							</g>
							<g>
								<polygon class="st17" points="18.8,190.6 23.6,195.9 23.7,195.9 23.9,195.8 28.5,189.9 								"/>
							</g>
							<g>
								<polygon class="st17" points="42.5,176.6 43.3,182.8 44.5,179.5 44.5,178.7 44.2,178.2 								"/>
							</g>
							<g>
								<polygon class="st17" points="41.3,189.9 44.2,186.7 44.2,186.1 43.3,183.6 								"/>
							</g>
							<g>
								<polygon class="st17" points="34,193.7 40.5,190.8 37.5,187.1 								"/>
							</g>
							<g>
								<polygon class="st17" points="24.2,195.8 33.2,194 28.8,189.9 								"/>
							</g>
							<g>
								<polygon class="st17" points="28.9,189.8 33.4,194 33.4,194 33.6,193.9 37.3,187.1 								"/>
							</g>
							<g>
								<polygon class="st17" points="31.3,182.2 28.9,189.6 37.3,186.9 								"/>
							</g>
							<g>
								<polygon class="st17" points="40.5,171.3 38.9,170 34.5,166.7 34.1,166.5 37.2,171.4 								"/>
							</g>
							<g>
								<polygon class="st17" points="36.1,167.5 35.4,167.2 37.4,168.6 								"/>
							</g>
							<g>
								<polygon class="st17" points="-1.2,171.9 -3.7,175.9 -2.1,174.4 								"/>
							</g>
							<g>
								<polygon class="st17" points="36.8,171.2 33.7,166.4 33.3,166.1 28.7,167.4 								"/>
							</g>
							<g>
								<polygon class="st17" points="38.3,178.9 31.4,182.1 37.4,186.7 								"/>
							</g>
							<g>
								<polygon class="st17" points="28.5,167.3 33,166 32.4,165.7 24.2,163.5 								"/>
							</g>
							<g>
								<polygon class="st17" points="42.2,176.5 38.6,178.8 43.1,183 								"/>
							</g>
							<g>
								<polygon class="st17" points="38.6,179 37.7,186.7 43.1,183.2 								"/>
							</g>
							<g>
								<polygon class="st17" points="42.1,176 41.2,172.5 40.7,171.5 40.7,171.5 37.3,171.5 								"/>
							</g>
							<g>
								<polygon class="st17" points="13.1,164.1 9.1,164.6 7.6,164.9 7,165.4 4.9,167.8 								"/>
							</g>
							<g>
								<polygon class="st17" points="6.3,165.8 1.3,169.1 4.4,168 								"/>
							</g>
							<g>
								<polygon class="st17" points="4.1,168.3 0.6,169.6 -0.1,170.1 -0.6,171 -1.7,174 								"/>
							</g>
							<g>
								<polygon class="st17" points="15.5,163 10.4,164.2 13.6,163.9 								"/>
							</g>
							<g>
								<polygon class="st17" points="24.2,163.2 23.1,163.1 23.8,163.2 								"/>
							</g>
							<g>
								<polygon class="st17" points="27.6,163.5 25.9,163.3 24.4,163.4 31.4,165.3 								"/>
							</g>
							<g>
								<polygon class="st17" points="23,163.2 20.4,162.8 17.4,162.5 16.5,162.8 14.1,163.9 								"/>
							</g>
						</g>
						<g>
							<path class="st17" d="M41.4,171.3C41.4,171.2,41.4,171.2,41.4,171.3l-4.7-4.2c0,0-0.1,0-0.1-0.1l-8.6-4.1c0,0-0.1,0-0.2,0
								l-10.4-1c-0.1,0-0.1,0-0.2,0l-10,2.4c-0.1,0-0.1,0-0.1,0.1l-7.8,5.2c0,0-0.1,0.1-0.1,0.1l-4.6,7.3c0,0,0,0.1,0,0.1l-0.3,8.1
								c0,0,0,0.1,0,0.1l2.8,4.8c0,0.1,0.1,0.1,0.1,0.1l6.6,3.4c0,0,0.1,0,0.1,0l9.2,2.1c0,0,0.1,0,0.1,0l10.5,0.5c0,0,0,0,0,0
								c0,0,0.1,0,0.1,0l9.8-1.9c0,0,0.1,0,0.1,0l7.3-3.3c0,0,0.1-0.1,0.1-0.1l3.7-4.2c0,0,0.1-0.1,0.1-0.2l0.4-8.1c0,0,0-0.1,0-0.1
								L41.4,171.3z M40.7,190.6l-3-3.7l5.4-3.5l-2.2,6.9L40.7,190.6z M33.4,194L33.4,194l-4.5-4.1l8.4-2.7l-3.7,6.8L33.4,194z
								 M23.6,195.9l-4.8-5.3l9.7-0.7l-4.7,5.9l-0.2,0L23.6,195.9z M13.3,195.4l-0.2,0l-4.5-6.2l9.7,1.4L13.3,195.4L13.3,195.4z
								 M-2.6,189.2l-1.6-6.8l4.3,3.8l-2.4,3.4L-2.6,189.2z M-0.1,170.1l0.7-0.5l3.5-1.3l-5.8,5.8l1.1-3L-0.1,170.1z M7.6,164.9
								l1.5-0.4l4-0.4l-8.2,3.6l2.1-2.4L7.6,164.9z M17.4,162.6l3,0.3l2.6,0.4l-8.9,0.6l2.3-1.1L17.4,162.6z M21.3,170.8l9.2,3.2
								l-7.9,3.8L21.3,170.8z M22.4,177.9l-9.4-2.6l8.1-4.5L22.4,177.9z M12.9,175.2l-0.7-6.5l8.8,2L12.9,175.2z M22.3,178l-7.5,5
								l-1.9-7.6L22.3,178z M30.7,174.2l0.4,7.7l-8.3-3.9L30.7,174.2z M21.4,170.7l6.9-3.1l2.2,6.4L21.4,170.7z M21.3,170.5
								l-1.3-4.6l8.2,1.5L21.3,170.5z M21,170.5l-8.7-2l7.4-2.6L21,170.5z M12.7,175.2l-8.2-1.5l7.4-5L12.7,175.2z M12.6,175.4
								l-6.9,5.5l-1.3-7L12.6,175.4z M12.7,175.5l1.9,7.6l-8.8-2L12.7,175.5z M22.5,178.2l0.8,6.6l-8.2-1.6L22.5,178.2z M22.7,178.2
								l8.3,3.9l-7.5,2.7L22.7,178.2z M30.9,174.2l7.4,4.5l-7,3.1L30.9,174.2z M28.6,167.6l8.2,3.9l-6,2.5L28.6,167.6z M20.1,165.7
								l3.7-2.3l4.3,3.8L20.1,165.7z M12.2,168.4l1.5-4.3l5.8,1.7L12.2,168.4z M4.4,173.6l0.3-5.5l7.1,0.5L4.4,173.6z M5.5,181
								l-5.8-1.6l4.5-5.3L5.5,181z M5.4,181.2l-5.1,4.9l-0.7-6.5L5.4,181.2z M14.6,183.3l-6.1,5.5l-2.7-7.6L14.6,183.3z M23.2,184.9
								l-4.6,5.4l-3.6-7L23.2,184.9z M31,182.2l-2.3,7.4l-5.1-4.7L31,182.2z M38.3,178.9l-0.9,7.8l-6-4.7L38.3,178.9z M31,174.1
								l6-2.5l1.3,7L31,174.1z M28.7,167.4l4.6-1.3l0.5,0.2l3.1,4.9L28.7,167.4z M33,166l-4.5,1.3l-4.3-3.8l8.2,2.2L33,166z
								 M19.8,165.7l-5.7-1.6l9.3-0.7L19.8,165.7z M11.9,168.5l-7-0.5l8.5-3.8L11.9,168.5z M4.1,173.7l-5.8,0.6l6.1-6L4.1,173.7z
								 M4,173.9l-4.4,5.3l-1.4-4.7L4,173.9z M0.1,186l-4.4-3.9l3.7-2.6L0.1,186z M5.5,181.3l2.7,7.5l-7.8-2.6L5.5,181.3z
								 M14.7,183.4l3.7,7l-9.7-1.5L14.7,183.4z M23.4,185l5.1,4.7l-9.7,0.7L23.4,185z M31.3,182.2l6.1,4.7l-8.4,2.7L31.3,182.2z
								 M38.6,179l4.6,4.2l-5.5,3.5L38.6,179z M37.3,171.8l4.9,4.6l-3.6,2.3L37.3,171.8z M37.3,171.5l3.3-0.1l0.1,0.1l0.5,0.9
								l0.9,3.6L37.3,171.5z M40.5,171.3l-3.3,0.1l-3.1-4.8l0.4,0.2l4.5,3.3L40.5,171.3z M35.4,167.2l0.7,0.3l1.2,1.1L35.4,167.2z
								 M27.6,163.5l3.8,1.8l-7-1.9l1.4,0L27.6,163.5z M23.8,163.2l-0.7-0.1l1.1,0.1L23.8,163.2z M13.6,163.9l-3.2,0.3l5.1-1.2
								L13.6,163.9z M4.4,168l-3.1,1.2l5-3.3L4.4,168z M-2.1,174.4l-1.6,1.5l2.5-4L-2.1,174.4z M-0.6,179.4l-3.6,2.5l2.2-7.1
								L-0.6,179.4z M0.2,186.5l3.4,6.5l-5.8-3l0,0L0.2,186.5z M0.5,186.5l7.8,2.6l-4.1,4.3L4,193.2L0.5,186.5z M8.4,189.2l4.4,6.1
								l-8.4-1.9L8.4,189.2z M18.6,190.7l4.7,5.2l-9.6-0.4L18.6,190.7z M28.8,189.9l4.4,4.1l-9,1.8L28.8,189.9z M37.5,187.1l3,3.6
								l-6.6,2.9L37.5,187.1z M38.6,178.8l3.6-2.3l0.9,6.4L38.6,178.8z M42.4,176.3l-0.8-3l2.3,4.3L42.4,176.3z M-4.5,177.3l0.4-0.7
								l1.9-1.8l-2.2,6.8l-0.3-2.5L-4.5,177.3z M-4.5,182.2l-0.2,0.9l0.1-2.4L-4.5,182.2z M-4.4,182.6l1.4,5.9l-1.9-3.3l0-1.1
								L-4.4,182.6z M44.2,186.7l-2.9,3.2l2-6.4l0.9,2.5L44.2,186.7z M43.4,183.2l1-2.9l-0.2,5.2L43.4,183.2z M43.3,182.8l-0.8-6.1
								l1.8,1.6l0.3,0.5l0,0.8L43.3,182.8z"/>
						</g>
					</g>
					<g>
						<g class="st31">
							<g>
								<polygon class="st17" points="306.1,138.3 313.5,133.3 306.4,132.8 								"/>
							</g>
							<g>
								<polygon class="st17" points="313.9,133.1 321.2,130.5 315.4,128.8 								"/>
							</g>
							<g>
								<polygon class="st17" points="305.8,138.4 306.1,133 300,139 								"/>
							</g>
							<g>
								<polygon class="st17" points="313.7,133.2 315.2,128.9 306.6,132.7 								"/>
							</g>
							<g>
								<polygon class="st17" points="301.3,143.9 305.7,138.6 299.9,139.2 								"/>
							</g>
							<g>
								<polygon class="st17" points="323,135.2 329.9,132.1 321.7,130.6 								"/>
							</g>
							<g>
								<polygon class="st17" points="321.8,130.4 329.9,131.9 325.5,128.1 								"/>
							</g>
							<g>
								<polygon class="st17" points="321.5,130.4 325.2,128.1 315.9,128.7 								"/>
							</g>
							<g>
								<polygon class="st17" points="316.5,148.1 310.4,153.6 320.1,155.1 								"/>
							</g>
							<g>
								<polygon class="st17" points="324.9,149.6 316.7,148 320.3,155 								"/>
							</g>
							<g>
								<polygon class="st17" points="316.3,148 307.5,145.9 310.2,153.5 								"/>
							</g>
							<g>
								<polygon class="st17" points="323.2,135.4 332.3,138.6 330.1,132.2 								"/>
							</g>
							<g>
								<polygon class="st17" points="325.1,149.7 320.5,155.1 330.2,154.4 								"/>
							</g>
							<g>
								<polygon class="st17" points="297.5,146.6 301.1,144.1 299.8,139.5 								"/>
							</g>
							<g>
								<polygon class="st17" points="301.8,150.7 301.1,144.3 297.5,146.9 								"/>
							</g>
							<g>
								<polygon class="st17" points="332.8,146.9 325.3,149.6 330.4,154.3 								"/>
							</g>
							<g>
								<polygon class="st17" points="307.1,145.9 301.4,144.2 302.1,150.8 								"/>
							</g>
							<g>
								<polygon class="st17" points="307.3,146 302.2,151 310,153.5 								"/>
							</g>
							<g>
								<polygon class="st17" points="314.3,140.1 306.1,138.6 307.4,145.6 								"/>
							</g>
							<g>
								<polygon class="st17" points="301.4,144.1 307.2,145.7 305.9,138.7 								"/>
							</g>
							<g>
								<polygon class="st17" points="314.6,139.9 322.6,135.4 313.9,133.4 								"/>
							</g>
							<g>
								<polygon class="st17" points="332.2,138.8 323.1,135.5 324.4,142.5 								"/>
							</g>
							<g>
								<polygon class="st17" points="332.6,138.6 338.6,136.1 330.4,132.3 								"/>
							</g>
							<g>
								<polygon class="st17" points="345.7,142.4 343.4,138 344.2,141 								"/>
							</g>
							<g>
								<polygon class="st17" points="343.9,141 339,136.5 340.3,143.3 								"/>
							</g>
							<g>
								<polygon class="st17" points="332.7,138.8 340,143.3 338.7,136.3 								"/>
							</g>
							<g>
								<polygon class="st17" points="314.8,140 324.1,142.6 322.8,135.5 								"/>
							</g>
							<g>
								<polygon class="st17" points="332.4,138.9 324.5,142.7 332.8,146.6 								"/>
							</g>
							<g>
								<polygon class="st17" points="332.7,146.7 324.4,142.9 325.2,149.4 								"/>
							</g>
							<g>
								<polygon class="st17" points="321.5,130.6 314.1,133.2 322.8,135.2 								"/>
							</g>
							<g>
								<polygon class="st17" points="340,143.5 332.6,138.9 333,146.6 								"/>
							</g>
							<g>
								<polygon class="st17" points="324.2,142.9 316.7,147.9 325,149.5 								"/>
							</g>
							<g>
								<polygon class="st17" points="306.2,138.4 314.4,139.9 313.7,133.4 								"/>
							</g>
							<g>
								<polygon class="st17" points="314.4,140.2 307.5,145.8 316.3,147.8 								"/>
							</g>
							<g>
								<polygon class="st17" points="324.1,142.7 314.7,140.2 316.6,147.7 								"/>
							</g>
							<g>
								<polygon class="st17" points="299.5,139.5 297.6,141.3 297.2,142 297.1,143.8 297.4,146.3 								"/>
							</g>
							<g>
								<polygon class="st17" points="302.2,151.2 305.7,157.9 305.9,158 310,153.7 								"/>
							</g>
							<g>
								<polygon class="st17" points="306.2,158.1 314.5,160 310.2,153.9 								"/>
							</g>
							<g>
								<polygon class="st17" points="310.4,153.8 314.9,160 315,160.1 315.1,160.1 320.1,155.3 								"/>
							</g>
							<g>
								<polygon class="st17" points="297,145.4 296.9,147.8 297.2,146.9 								"/>
							</g>
							<g>
								<polygon class="st17" points="315.4,160.1 325,160.5 320.3,155.3 								"/>
							</g>
							<g>
								<polygon class="st17" points="296.9,148.9 296.9,150 298.7,153.2 297.3,147.3 								"/>
							</g>
							<g>
								<polygon class="st17" points="297.5,147.2 299.1,153.9 299.4,154.4 301.8,151 								"/>
							</g>
							<g>
								<polygon class="st17" points="299.5,154.6 299.5,154.7 305.4,157.7 302,151.2 								"/>
							</g>
							<g>
								<polygon class="st17" points="339.4,151.6 342.4,155.3 342.6,155.1 344.8,148.2 								"/>
							</g>
							<g>
								<polygon class="st17" points="345.9,150.2 346.2,145 345.1,147.9 								"/>
							</g>
							<g>
								<polygon class="st17" points="320.5,155.3 325.3,160.6 325.4,160.6 325.6,160.5 330.3,154.6 								"/>
							</g>
							<g>
								<polygon class="st17" points="344.2,141.3 345.1,147.5 346.2,144.2 346.2,143.4 346,142.9 								"/>
							</g>
							<g>
								<polygon class="st17" points="343,154.6 345.9,151.4 345.9,150.8 345,148.3 								"/>
							</g>
							<g>
								<polygon class="st17" points="335.7,158.4 342.3,155.5 339.3,151.8 								"/>
							</g>
							<g>
								<polygon class="st17" points="325.9,160.5 334.9,158.7 330.5,154.6 								"/>
							</g>
							<g>
								<polygon class="st17" points="330.7,154.5 335.1,158.7 335.1,158.7 335.4,158.6 339,151.8 								"/>
							</g>
							<g>
								<polygon class="st17" points="333,146.9 330.6,154.3 339,151.6 								"/>
							</g>
							<g>
								<polygon class="st17" points="342.2,136 340.7,134.7 336.2,131.4 335.8,131.2 338.9,136.1 								"/>
							</g>
							<g>
								<polygon class="st17" points="337.9,132.2 337.1,131.8 339.1,133.3 								"/>
							</g>
							<g>
								<polygon class="st17" points="300.5,136.6 298,140.6 299.7,139.1 								"/>
							</g>
							<g>
								<polygon class="st17" points="338.5,135.9 335.5,131.1 335,130.8 330.4,132.1 								"/>
							</g>
							<g>
								<polygon class="st17" points="340.1,143.6 333.1,146.8 339.2,151.4 								"/>
							</g>
							<g>
								<polygon class="st17" points="330.2,132 334.8,130.7 334.1,130.4 325.9,128.2 								"/>
							</g>
							<g>
								<polygon class="st17" points="344,141.2 340.4,143.5 344.9,147.6 								"/>
							</g>
							<g>
								<polygon class="st17" points="340.3,143.7 339.4,151.4 344.9,147.9 								"/>
							</g>
							<g>
								<polygon class="st17" points="343.9,140.7 343,137.2 342.5,136.2 342.4,136.2 339.1,136.2 								"/>
							</g>
							<g>
								<polygon class="st17" points="314.8,128.8 310.8,129.3 309.4,129.6 308.7,130.1 306.6,132.5 								"/>
							</g>
							<g>
								<polygon class="st17" points="308,130.5 303.1,133.8 306.2,132.7 								"/>
							</g>
							<g>
								<polygon class="st17" points="305.9,133 302.4,134.3 301.7,134.8 301.1,135.7 300,138.7 								"/>
							</g>
							<g>
								<polygon class="st17" points="317.2,127.7 312.2,128.9 315.3,128.6 								"/>
							</g>
							<g>
								<polygon class="st17" points="326,127.9 324.8,127.8 325.5,127.9 								"/>
							</g>
							<g>
								<polygon class="st17" points="329.4,128.2 327.6,128 326.2,128.1 333.1,130 								"/>
							</g>
							<g>
								<polygon class="st17" points="324.7,127.9 322.2,127.5 319.2,127.2 318.2,127.5 315.9,128.6 								"/>
							</g>
						</g>
						<g>
							<path class="st17" d="M343.2,136C343.1,135.9,343.1,135.9,343.2,136l-4.7-4.2c0,0-0.1,0-0.1-0.1l-8.6-4.1c0,0-0.1,0-0.2,0
								l-10.4-1c-0.1,0-0.1,0-0.2,0l-10,2.4c-0.1,0-0.1,0-0.1,0.1l-7.8,5.2c0,0-0.1,0.1-0.1,0.1l-4.6,7.3c0,0,0,0.1,0,0.1l-0.3,8.1
								c0,0,0,0.1,0,0.1l2.8,4.8c0,0.1,0.1,0.1,0.1,0.1l6.6,3.4c0,0,0.1,0,0.1,0l9.2,2.1c0,0,0.1,0,0.1,0l10.5,0.5c0,0,0,0,0,0
								c0,0,0.1,0,0.1,0l9.8-1.9c0,0,0.1,0,0.1,0l7.3-3.3c0,0,0.1-0.1,0.1-0.1l3.7-4.2c0,0,0.1-0.1,0.1-0.2l0.4-8.1c0,0,0-0.1,0-0.1
								L343.2,136z M342.4,155.3l-3-3.7l5.4-3.5l-2.2,6.9L342.4,155.3z M335.1,158.7L335.1,158.7l-4.5-4.1l8.4-2.7l-3.7,6.8
								L335.1,158.7z M325.3,160.6l-4.8-5.3l9.7-0.7l-4.7,5.9l-0.2,0L325.3,160.6z M315,160.1l-0.2,0l-4.5-6.2l9.7,1.4L315,160.1
								L315,160.1z M299.1,153.9l-1.6-6.8l4.3,3.8l-2.4,3.4L299.1,153.9z M301.7,134.8l0.7-0.5l3.5-1.3l-5.8,5.8l1.1-3L301.7,134.8z
								 M309.4,129.6l1.5-0.4l4-0.4l-8.2,3.6l2.1-2.4L309.4,129.6z M319.2,127.2l3,0.3l2.6,0.4l-8.9,0.6l2.3-1.1L319.2,127.2z
								 M323.1,135.5l9.2,3.2l-7.9,3.8L323.1,135.5z M324.1,142.6l-9.4-2.6l8.1-4.5L324.1,142.6z M314.6,139.9l-0.7-6.5l8.8,2
								L314.6,139.9z M324.1,142.7l-7.5,5l-1.9-7.6L324.1,142.7z M332.4,138.9l0.4,7.7l-8.3-3.9L332.4,138.9z M323.2,135.4l6.9-3.1
								l2.2,6.4L323.2,135.4z M323,135.2l-1.3-4.6l8.2,1.5L323,135.2z M322.8,135.2l-8.7-2l7.4-2.6L322.8,135.2z M314.4,139.9
								l-8.2-1.5l7.4-5L314.4,139.9z M314.3,140.1l-6.9,5.5l-1.3-7L314.3,140.1z M314.4,140.2l1.9,7.6l-8.8-2L314.4,140.2z
								 M324.2,142.9l0.8,6.6l-8.2-1.6L324.2,142.9z M324.4,142.9l8.3,3.9l-7.5,2.7L324.4,142.9z M332.6,138.9l7.4,4.5l-7,3.1
								L332.6,138.9z M330.4,132.3l8.2,3.9l-6,2.5L330.4,132.3z M321.8,130.4l3.7-2.3l4.3,3.8L321.8,130.4z M313.9,133.1l1.5-4.3
								l5.8,1.7L313.9,133.1z M306.1,138.3l0.3-5.5l7.1,0.5L306.1,138.3z M307.2,145.7l-5.8-1.6l4.5-5.3L307.2,145.7z M307.1,145.9
								l-5.1,4.9l-0.7-6.5L307.1,145.9z M316.3,148l-6.1,5.5l-2.7-7.6L316.3,148z M324.9,149.6l-4.6,5.4l-3.6-7L324.9,149.6z
								 M332.8,146.9l-2.3,7.4l-5.1-4.7L332.8,146.9z M340.1,143.6l-0.9,7.8l-6-4.7L340.1,143.6z M332.7,138.8l6-2.5l1.3,7
								L332.7,138.8z M330.5,132.1l4.6-1.3l0.5,0.2l3.1,4.9L330.5,132.1z M334.8,130.7l-4.5,1.3l-4.3-3.8l8.2,2.2L334.8,130.7z
								 M321.5,130.4l-5.7-1.6l9.3-0.7L321.5,130.4z M313.7,133.2l-7-0.5l8.5-3.8L313.7,133.2z M305.8,138.4L300,139l6.1-6
								L305.8,138.4z M305.7,138.6l-4.4,5.3l-1.4-4.7L305.7,138.6z M301.8,150.7l-4.4-3.9l3.7-2.6L301.8,150.7z M307.3,146l2.7,7.5
								l-7.8-2.6L307.3,146z M316.5,148.1l3.7,7l-9.7-1.5L316.5,148.1z M325.1,149.7l5.1,4.7l-9.7,0.7L325.1,149.7z M333,146.9
								l6.1,4.7l-8.4,2.7L333,146.9z M340.3,143.7l4.6,4.2l-5.5,3.5L340.3,143.7z M339,136.5l4.9,4.6l-3.6,2.3L339,136.5z
								 M339.1,136.2l3.3-0.1l0.1,0.1l0.5,0.9l0.9,3.6L339.1,136.2z M342.2,136l-3.3,0.1l-3.1-4.8l0.4,0.2l4.5,3.3L342.2,136z
								 M337.1,131.8l0.7,0.3l1.2,1.1L337.1,131.8z M329.4,128.2l3.8,1.8l-7-1.9l1.4,0L329.4,128.2z M325.5,127.9l-0.7-0.1l1.1,0.1
								L325.5,127.9z M315.3,128.6l-3.2,0.3l5.1-1.2L315.3,128.6z M306.2,132.7l-3.1,1.2l5-3.3L306.2,132.7z M299.7,139.1l-1.6,1.5
								l2.5-4L299.7,139.1z M301.1,144.1l-3.6,2.5l2.2-7.1L301.1,144.1z M302,151.2l3.4,6.5l-5.8-3l0,0L302,151.2z M302.2,151.2
								l7.8,2.6l-4.1,4.3l-0.2-0.1L302.2,151.2z M310.2,153.9l4.4,6.1l-8.4-1.9L310.2,153.9z M320.3,155.4l4.7,5.2l-9.6-0.4
								L320.3,155.4z M330.5,154.6l4.4,4.1l-9,1.8L330.5,154.6z M339.3,151.8l3,3.6l-6.6,2.9L339.3,151.8z M340.4,143.5l3.6-2.3
								l0.9,6.4L340.4,143.5z M344.2,141l-0.8-3l2.3,4.3L344.2,141z M297.2,142l0.4-0.7l1.9-1.8l-2.2,6.8l-0.3-2.5L297.2,142z
								 M297.2,146.9l-0.2,0.9l0.1-2.4L297.2,146.9z M297.3,147.3l1.4,5.9l-1.9-3.3l0-1.1L297.3,147.3z M345.9,151.4l-2.9,3.2l2-6.4
								l0.9,2.5L345.9,151.4z M345.1,147.9l1-2.9l-0.2,5.2L345.1,147.9z M345.1,147.5l-0.8-6.1l1.8,1.6l0.3,0.5l0,0.8L345.1,147.5z"
								/>
						</g>
					</g>
					<g>
						<g class="st31">
							<g>
								<polygon class="st17" points="115.7,113.8 122,109.6 116,109.2 								"/>
							</g>
							<g>
								<polygon class="st17" points="122.4,109.4 128.5,107.2 123.6,105.8 								"/>
							</g>
							<g>
								<polygon class="st17" points="115.5,113.9 115.8,109.3 110.6,114.4 								"/>
							</g>
							<g>
								<polygon class="st17" points="122.1,109.5 123.4,105.8 116.2,109 								"/>
							</g>
							<g>
								<polygon class="st17" points="111.7,118.5 115.4,114.1 110.5,114.6 								"/>
							</g>
							<g>
								<polygon class="st17" points="130,111.2 135.8,108.6 128.9,107.3 								"/>
							</g>
							<g>
								<polygon class="st17" points="129,107.2 135.8,108.4 132.2,105.2 								"/>
							</g>
							<g>
								<polygon class="st17" points="128.8,107.1 131.9,105.2 124,105.7 								"/>
							</g>
							<g>
								<polygon class="st17" points="124.5,122.1 119.4,126.8 127.6,128 								"/>
							</g>
							<g>
								<polygon class="st17" points="131.7,123.4 124.7,122.1 127.8,127.9 								"/>
							</g>
							<g>
								<polygon class="st17" points="124.4,122 116.9,120.3 119.2,126.7 								"/>
							</g>
							<g>
								<polygon class="st17" points="130.2,111.3 137.9,114 136,108.7 								"/>
							</g>
							<g>
								<polygon class="st17" points="131.8,123.5 127.9,128 136.2,127.4 								"/>
							</g>
							<g>
								<polygon class="st17" points="108.5,120.8 111.5,118.7 110.4,114.9 								"/>
							</g>
							<g>
								<polygon class="st17" points="112.1,124.3 111.5,118.9 108.4,121.1 								"/>
							</g>
							<g>
								<polygon class="st17" points="138.3,121.1 132,123.4 136.3,127.3 								"/>
							</g>
							<g>
								<polygon class="st17" points="116.6,120.2 111.7,118.8 112.3,124.4 								"/>
							</g>
							<g>
								<polygon class="st17" points="116.7,120.3 112.4,124.5 119,126.7 								"/>
							</g>
							<g>
								<polygon class="st17" points="122.7,115.3 115.7,114.1 116.8,120 								"/>
							</g>
							<g>
								<polygon class="st17" points="111.8,118.7 116.7,120 115.6,114.2 								"/>
							</g>
							<g>
								<polygon class="st17" points="122.9,115.1 129.7,111.4 122.3,109.7 								"/>
							</g>
							<g>
								<polygon class="st17" points="137.9,114.2 130.1,111.5 131.2,117.4 								"/>
							</g>
							<g>
								<polygon class="st17" points="138.1,114.1 143.2,112 136.3,108.7 								"/>
							</g>
							<g>
								<polygon class="st17" points="149.2,117.3 147.3,113.6 147.9,116.1 								"/>
							</g>
							<g>
								<polygon class="st17" points="147.7,116.1 143.6,112.2 144.7,118 								"/>
							</g>
							<g>
								<polygon class="st17" points="138.2,114.2 144.4,118 143.3,112.1 								"/>
							</g>
							<g>
								<polygon class="st17" points="123.1,115.2 131,117.4 129.9,111.5 								"/>
							</g>
							<g>
								<polygon class="st17" points="138,114.3 131.3,117.5 138.3,120.8 								"/>
							</g>
							<g>
								<polygon class="st17" points="138.2,120.9 131.2,117.7 131.9,123.2 								"/>
							</g>
							<g>
								<polygon class="st17" points="128.7,107.3 122.5,109.5 129.8,111.2 								"/>
							</g>
							<g>
								<polygon class="st17" points="144.4,118.2 138.2,114.3 138.5,120.8 								"/>
							</g>
							<g>
								<polygon class="st17" points="131,117.7 124.7,121.9 131.7,123.2 								"/>
							</g>
							<g>
								<polygon class="st17" points="115.8,113.9 122.7,115.2 122.1,109.7 								"/>
							</g>
							<g>
								<polygon class="st17" points="122.8,115.4 117,120.1 124.4,121.8 								"/>
							</g>
							<g>
								<polygon class="st17" points="130.9,117.6 123,115.4 124.6,121.8 								"/>
							</g>
							<g>
								<polygon class="st17" points="110.2,114.8 108.6,116.3 108.2,116.9 108.1,118.4 108.4,120.6 								"/>
							</g>
							<g>
								<polygon class="st17" points="112.4,124.7 115.4,130.4 115.6,130.5 119,126.9 								"/>
							</g>
							<g>
								<polygon class="st17" points="115.8,130.5 122.9,132.1 119.2,127 								"/>
							</g>
							<g>
								<polygon class="st17" points="119.4,126.9 123.1,132.2 123.3,132.2 123.4,132.2 127.6,128.2 								"/>
							</g>
							<g>
								<polygon class="st17" points="108.1,119.8 108,121.8 108.2,121.1 								"/>
							</g>
							<g>
								<polygon class="st17" points="123.6,132.3 131.7,132.6 127.8,128.2 								"/>
							</g>
							<g>
								<polygon class="st17" points="108,122.7 107.9,123.7 109.5,126.4 108.3,121.5 								"/>
							</g>
							<g>
								<polygon class="st17" points="108.5,121.3 109.8,127 110.1,127.4 112.1,124.6 								"/>
							</g>
							<g>
								<polygon class="st17" points="110.2,127.6 110.2,127.6 115.1,130.2 112.2,124.7 								"/>
							</g>
							<g>
								<polygon class="st17" points="143.9,125.1 146.4,128.2 146.6,128 148.5,122.2 								"/>
							</g>
							<g>
								<polygon class="st17" points="149.4,123.9 149.6,119.5 148.8,122 								"/>
							</g>
							<g>
								<polygon class="st17" points="127.9,128.2 132,132.6 132.1,132.6 132.2,132.6 136.2,127.6 								"/>
							</g>
							<g>
								<polygon class="st17" points="148,116.4 148.7,121.6 149.7,118.8 149.7,118.1 149.5,117.7 								"/>
							</g>
							<g>
								<polygon class="st17" points="147,127.6 149.4,124.9 149.4,124.4 148.7,122.3 								"/>
							</g>
							<g>
								<polygon class="st17" points="140.8,130.8 146.3,128.3 143.8,125.2 								"/>
							</g>
							<g>
								<polygon class="st17" points="132.5,132.6 140.1,131.1 136.4,127.6 								"/>
							</g>
							<g>
								<polygon class="st17" points="136.5,127.5 140.3,131 140.3,131 140.5,130.9 143.6,125.2 								"/>
							</g>
							<g>
								<polygon class="st17" points="138.5,121.1 136.5,127.4 143.6,125.1 								"/>
							</g>
							<g>
								<polygon class="st17" points="146.3,111.9 145,110.7 141.2,108 140.9,107.8 143.5,111.9 								"/>
							</g>
							<g>
								<polygon class="st17" points="142.6,108.6 142,108.4 143.6,109.5 								"/>
							</g>
							<g>
								<polygon class="st17" points="111,112.4 108.9,115.8 110.3,114.5 								"/>
							</g>
							<g>
								<polygon class="st17" points="143.2,111.8 140.6,107.7 140.2,107.5 136.3,108.6 								"/>
							</g>
							<g>
								<polygon class="st17" points="144.5,118.3 138.6,121 143.7,124.9 								"/>
							</g>
							<g>
								<polygon class="st17" points="136.1,108.5 140,107.4 139.4,107.1 132.5,105.2 								"/>
							</g>
							<g>
								<polygon class="st17" points="147.8,116.3 144.7,118.2 148.5,121.7 								"/>
							</g>
							<g>
								<polygon class="st17" points="144.7,118.4 143.9,124.9 148.5,121.9 								"/>
							</g>
							<g>
								<polygon class="st17" points="147.7,115.9 146.9,112.9 146.5,112.1 146.4,112 143.6,112.1 								"/>
							</g>
							<g>
								<polygon class="st17" points="123.1,105.8 119.7,106.2 118.5,106.5 117.9,106.8 116.2,108.9 								"/>
							</g>
							<g>
								<polygon class="st17" points="117.4,107.2 113.2,110 115.8,109 								"/>
							</g>
							<g>
								<polygon class="st17" points="115.5,109.3 112.6,110.4 112,110.8 111.5,111.6 110.6,114.2 								"/>
							</g>
							<g>
								<polygon class="st17" points="125.2,104.9 120.9,105.9 123.5,105.6 								"/>
							</g>
							<g>
								<polygon class="st17" points="132.5,105 131.6,104.9 132.2,105 								"/>
							</g>
							<g>
								<polygon class="st17" points="135.4,105.3 133.9,105.1 132.7,105.1 138.6,106.7 								"/>
							</g>
							<g>
								<polygon class="st17" points="131.5,105 129.3,104.7 126.8,104.5 126,104.7 124,105.6 								"/>
							</g>
						</g>
						<g>
							<path class="st17" d="M147.1,111.8C147.1,111.8,147.1,111.8,147.1,111.8l-4-3.6c0,0,0,0-0.1,0l-7.3-3.4c0,0-0.1,0-0.1,0
								l-8.8-0.8c0,0-0.1,0-0.1,0l-8.4,2c0,0-0.1,0-0.1,0l-6.6,4.4c0,0-0.1,0-0.1,0.1l-3.9,6.2c0,0,0,0.1,0,0.1l-0.3,6.9
								c0,0,0,0.1,0,0.1l2.3,4.1c0,0,0.1,0.1,0.1,0.1l5.6,2.9c0,0,0.1,0,0.1,0l7.8,1.8c0,0,0,0,0.1,0l8.9,0.4c0,0,0,0,0,0
								c0,0,0.1,0,0.1,0l8.3-1.6c0,0,0.1,0,0.1,0l6.2-2.8c0,0,0.1,0,0.1-0.1l3.1-3.5c0,0,0.1-0.1,0.1-0.1l0.3-6.9c0,0,0-0.1,0-0.1
								L147.1,111.8z M146.4,128.2l-2.5-3.1l4.6-2.9l-1.8,5.8L146.4,128.2z M140.3,131L140.3,131l-3.8-3.5l7.1-2.3l-3.1,5.7
								L140.3,131z M132,132.6l-4.1-4.5l8.2-0.6l-3.9,5L132,132.6L132,132.6z M123.3,132.2l-0.1,0l-3.8-5.3l8.2,1.2L123.3,132.2
								L123.3,132.2z M109.8,127l-1.4-5.7l3.7,3.2l-2.1,2.9L109.8,127z M112,110.8l0.6-0.4l2.9-1.1l-4.9,4.9l0.9-2.6L112,110.8z
								 M118.5,106.5l1.2-0.3l3.3-0.4l-6.9,3.1l1.7-2L118.5,106.5z M126.8,104.5l2.5,0.2l2.2,0.3l-7.5,0.5l2-0.9L126.8,104.5z
								 M130.1,111.5l7.8,2.7l-6.7,3.2L130.1,111.5z M131,117.4l-7.9-2.2l6.8-3.8L131,117.4z M122.9,115.1l-0.6-5.5l7.4,1.7
								L122.9,115.1z M130.9,117.6l-6.3,4.2l-1.6-6.4L130.9,117.6z M138,114.3l0.4,6.5l-7-3.3L138,114.3z M130.2,111.3l5.9-2.6
								l1.9,5.4L130.2,111.3z M130,111.2l-1.1-3.9l6.9,1.3L130,111.2z M129.8,111.2l-7.3-1.7l6.3-2.2L129.8,111.2z M122.7,115.2
								l-6.9-1.2l6.3-4.2L122.7,115.2z M122.7,115.3l-5.8,4.7l-1.1-5.9L122.7,115.3z M122.8,115.4l1.6,6.4l-7.4-1.7L122.8,115.4z
								 M131,117.7l0.7,5.6l-7-1.3L131,117.7z M131.2,117.7l7,3.3l-6.3,2.3L131.2,117.7z M138.2,114.3l6.2,3.8l-5.9,2.7L138.2,114.3
								z M136.3,108.7l7,3.3l-5.1,2.1L136.3,108.7z M129,107.2l3.1-2l3.7,3.2L129,107.2z M122.4,109.4l1.3-3.6l4.9,1.4L122.4,109.4z
								 M115.7,113.8l0.2-4.6l6,0.4L115.7,113.8z M116.7,120.1l-4.9-1.4l3.8-4.5L116.7,120.1z M116.6,120.2l-4.3,4.2l-0.6-5.5
								L116.6,120.2z M124.4,122l-5.1,4.7l-2.3-6.4L124.4,122z M131.7,123.4l-3.9,4.6l-3.1-5.9L131.7,123.4z M138.3,121.1l-2,6.2
								l-4.3-4L138.3,121.1z M144.5,118.3l-0.8,6.6l-5.1-3.9L144.5,118.3z M138.2,114.2l5.1-2.1l1.1,5.9L138.2,114.2z M136.3,108.6
								l3.9-1.1l0.4,0.2l2.6,4.1L136.3,108.6z M140,107.4l-3.8,1.1l-3.7-3.2l6.9,1.9L140,107.4z M128.8,107.1l-4.8-1.4l7.8-0.6
								L128.8,107.1z M122.1,109.5l-5.9-0.4l7.2-3.2L122.1,109.5z M115.5,113.9l-4.9,0.5l5.2-5.1L115.5,113.9z M115.4,114.1
								l-3.8,4.5l-1.2-3.9L115.4,114.1z M112.1,124.3l-3.7-3.3l3.1-2.2L112.1,124.3z M116.7,120.3l2.3,6.4l-6.6-2.2L116.7,120.3z
								 M124.5,122.1l3.1,5.9l-8.2-1.2L124.5,122.1z M131.8,123.5l4.3,4L128,128L131.8,123.5z M138.5,121.1l5.1,4l-7.1,2.3
								L138.5,121.1z M144.7,118.4l3.9,3.6l-4.6,3L144.7,118.4z M143.6,112.2l4.1,3.9l-3.1,1.9L143.6,112.2z M143.6,112.1l2.8-0.1
								l0.1,0.1l0.4,0.8l0.8,3L143.6,112.1z M146.3,111.9l-2.8,0.1l-2.6-4.1l0.3,0.1l3.8,2.8L146.3,111.9z M142,108.4l0.6,0.3l1,0.9
								L142,108.4z M135.4,105.3l3.2,1.5l-5.9-1.6l1.2,0L135.4,105.3z M132.2,105l-0.6-0.1l1,0.1L132.2,105z M123.5,105.6l-2.7,0.3
								l4.3-1L123.5,105.6z M115.8,109l-2.6,1l4.2-2.8L115.8,109z M110.3,114.5l-1.4,1.3l2.1-3.4L110.3,114.5z M111.5,118.7l-3,2.1
								l1.9-6L111.5,118.7z M112.2,124.7l2.9,5.5l-4.9-2.6l0,0L112.2,124.7z M112.4,124.7l6.6,2.2l-3.4,3.6l-0.2-0.1L112.4,124.7z
								 M119.2,127l3.7,5.2l-7.1-1.6L119.2,127z M127.8,128.2l4,4.4l-8.1-0.4L127.8,128.2z M136.4,127.6l3.7,3.5l-7.6,1.5
								L136.4,127.6z M143.8,125.2l2.5,3.1l-5.5,2.5L143.8,125.2z M144.7,118.2l3.1-1.9l0.8,5.4L144.7,118.2z M147.9,116.1l-0.6-2.5
								l1.9,3.7L147.9,116.1z M108.2,116.9l0.4-0.6l1.6-1.5l-1.8,5.8l-0.2-2.1L108.2,116.9z M108.2,121.1l-0.2,0.8l0.1-2
								L108.2,121.1z M108.3,121.5l1.2,5l-1.6-2.8l0-1L108.3,121.5z M149.4,124.9l-2.4,2.7l1.7-5.4l0.8,2.2L149.4,124.9z M148.8,122
								l0.9-2.5l-0.2,4.4L148.8,122z M148.7,121.6l-0.7-5.2l1.5,1.3l0.2,0.4l0,0.7L148.7,121.6z"/>
						</g>
					</g>
				</g>
				<g>
					<g>
						<path class="st17" d="M345.6,216.2c0-0.3-0.1-0.6-0.1-0.8c0-0.4-0.1-0.7-0.1-1.1c0-0.2-0.1-0.2-0.3-0.2
							c-0.4,0.1-0.8,0.1-1.1,0.1c-0.3,0-0.4,0.3-0.7,0.4c-0.1-0.4-0.1-0.7-0.1-1c0-0.2-0.1-0.3-0.4-0.3c-0.2,0-0.5,0-0.7,0
							c0-0.7-0.1-1.4-0.1-2.1c0-0.1,0-0.2,0-0.4c-0.4,0-0.7,0.1-1.1,0.1l0,0c-0.3,0-0.7,0.1-1,0.1c-0.5,0.7-0.9,1.4-1.4,2.2
							c-0.1,0.1-0.1,0.2-0.2,0.3c-0.2,0-0.4,0-0.6,0c0,0.8,0,1.6-0.2,2.4c-0.1,0.4-0.2,0.7-0.6,1c-0.8,0.5-2.2,0.5-3.2,0.6
							c-1.4,0.1-2.8,0.2-4.2,0.4c-0.3,0-0.7-0.2-0.7-0.5c0-0.8,0-1.6,0-2.5c-1.7,0.3-11.3,1.9-13.8,4.7c-0.1,0.1,0.3,0.2,0.8,0.3
							c1.9,0.4,2.4,0.6,6.9,0.5c0.1,0.2,0.3,0.2,0.5,0.2c0.8-0.1,1.6-0.2,2.4-0.3c0.2,0,0.3-0.1,0.3-0.2c0.4,0,0.7-0.1,1.1-0.1
							c0,0.1,0,0.2,0.2,0.2c0.1,0,0.1,0,0.2,0c3.1-0.4,6.3-0.7,9.4-1.1c0.1,0,0.3,0,0.3-0.2c0,0,0,0,0,0c0,0,0,0,0,0c0,0,0,0,0,0
							c0.3,0,0.7-0.1,1-0.1c0,0.1,0.1,0.2,0.3,0.2c0.9-0.1,1.7-0.2,2.6-0.3c0.2,0,0.2-0.1,0.2-0.2c0.4,0,0.8-0.1,1.2-0.1
							c0.2,0,0.3-0.1,0.4-0.2c0.1-0.1,0.2-0.2,0.2-0.3c0.2-0.4,0.5-0.7,0.7-1.2c0.4,0.5,1,0.4,1.5,0.3c0.2,0,0.4-0.1,0.6-0.1
							C345.7,216.5,345.6,216.3,345.6,216.2z"/>
					</g>
					<polygon class="st17" points="328.6,214.9 329.2,209.2 328.8,209.2 328.1,215 					"/>
				</g>
			</g>
		</g>
		<path class="st6" d="M208.6,20l186.5,107.7V343L208.6,450.7L22.1,343V127.6L208.6,20 M208.6,9.6L13.1,122.5v225.7l195.5,112.9
			l195.5-112.9V122.5L208.6,9.6L208.6,9.6z"/>
	</g>
</g>
</svg>
